<svg width="34" height="34" viewBox="0 0 34 34" fill="none" xmlns="http://www.w3.org/2000/svg">
<path fill-rule="evenodd" clip-rule="evenodd" d="M20.1013 4.29595L20.3806 5.78376L13.6195 5.78376L13.8989 4.29595L20.1013 4.29595ZM22.146 5.97349C22.2933 6.75823 21.6913 7.48376 20.8929 7.48376H19.8362V8.51046H20.1206C21.8411 8.51046 23.2904 9.79569 23.4962 11.5038L24.5614 20.3464C24.6335 20.9455 24.5449 21.5531 24.3047 22.1066L23.8148 23.2354C23.7942 23.2828 23.7723 23.3293 23.7491 23.375H25.3798C26.2625 23.375 26.9231 24.134 26.7462 24.9448L25.6476 29.9794C25.5148 30.588 24.9438 31.025 24.2812 31.025H10.1438C9.4813 31.025 8.91021 30.588 8.77741 29.9794L7.67882 24.9448C7.50191 24.134 8.16259 23.375 9.04523 23.375H10.251C10.2278 23.3293 10.2059 23.2828 10.1854 23.2354L9.6955 22.1066C9.45524 21.5531 9.36665 20.9455 9.43882 20.3464L10.504 11.5038C10.7097 9.79569 12.1591 8.51046 13.8796 8.51046H14.164V7.48376H13.1073C12.3089 7.48376 11.7069 6.75823 11.8542 5.97349L12.2931 3.63568C12.4063 3.03278 12.9328 2.59595 13.5463 2.59595H20.4539C21.0674 2.59595 21.5939 3.03278 21.7071 3.63568L22.146 5.97349ZM15.864 7.48376V8.51046H16.5751H17.0001H18.1362V7.48376H15.864ZM13.8796 10.2105C13.0193 10.2105 12.2947 10.8531 12.1918 11.7072L11.1266 20.5497C11.0905 20.8493 11.1348 21.153 11.255 21.4298L11.7448 22.5586C11.8796 22.8692 12.186 23.0702 12.5246 23.0702H16.5751H17.0001H21.4756C21.8142 23.0702 22.1205 22.8692 22.2553 22.5586L22.7452 21.4298C22.8653 21.153 22.9096 20.8493 22.8736 20.5497L21.8084 11.7072C21.7055 10.8531 20.9808 10.2105 20.1206 10.2105H17.0001H16.5751H13.8796ZM9.61489 25.1186L10.5232 29.2814H23.9018L24.8102 25.1186H9.61489ZM14.5166 13.4183C14.0472 13.4183 13.6666 13.7989 13.6666 14.2683C13.6666 14.7377 14.0472 15.1183 14.5166 15.1183H17.0001L17.001 15.1183H19.4834C19.9528 15.1183 20.3334 14.7377 20.3334 14.2683C20.3334 13.7989 19.9528 13.4183 19.4834 13.4183H17.0001H17H14.5166ZM13.6 17.6254C13.1306 17.6254 12.75 18.006 12.75 18.4754C12.75 18.9449 13.1306 19.3254 13.6 19.3254H16.999H16.9999H20.4C20.8694 19.3254 21.25 18.9449 21.25 18.4754C21.25 18.006 20.8694 17.6254 20.4 17.6254H17.0001H16.9999H13.6Z" fill="white"/>
</svg>
