<svg width="34" height="34" viewBox="0 0 34 34" fill="none" xmlns="http://www.w3.org/2000/svg">
<path fill-rule="evenodd" clip-rule="evenodd" d="M13.5599 8.89348L13.0736 7.04555L10.1558 8.89348H13.5599ZM14.5698 6.0513L15.1586 8.28861L19.8796 5.29863C20.6083 4.83715 21.5753 5.2172 21.7948 6.0513L22.5428 8.89348H24.225C25.8681 8.89348 27.2 10.2254 27.2 11.8685V15.6935H28.9C29.8389 15.6935 30.6 16.4546 30.6 17.3935V20.7935C30.6 21.7324 29.8389 22.4935 28.9 22.4935H27.2V26.3185C27.2 27.9615 25.8681 29.2935 24.225 29.2935H6.37502C4.73198 29.2935 3.40002 27.9615 3.40002 26.3185V11.8685C3.40002 10.2254 4.73198 8.89348 6.37502 8.89348H6.97853L12.6546 5.29863C13.3833 4.83715 14.3503 5.2172 14.5698 6.0513ZM20.2986 7.04555L20.7849 8.89348H17.3808L20.2986 7.04555ZM25.5 11.8685V15.6935H23.8C21.9223 15.6935 20.4 17.2157 20.4 19.0935C20.4 20.9713 21.9223 22.4935 23.8 22.4935H25.5V26.3185C25.5 27.0226 24.9292 27.5935 24.225 27.5935H6.37502C5.67086 27.5935 5.10002 27.0226 5.10002 26.3185V11.8685C5.10002 11.1643 5.67086 10.5935 6.37502 10.5935H24.225C24.9292 10.5935 25.5 11.1643 25.5 11.8685ZM28.9 17.3935H23.8C22.8611 17.3935 22.1 18.1546 22.1 19.0935C22.1 20.0324 22.8611 20.7935 23.8 20.7935H28.9V17.3935ZM23.8 19.9435C24.2695 19.9435 24.65 19.5629 24.65 19.0935C24.65 18.624 24.2695 18.2435 23.8 18.2435C23.3306 18.2435 22.95 18.624 22.95 19.0935C22.95 19.5629 23.3306 19.9435 23.8 19.9435Z" fill="white"/>
</svg>
