<svg width="22" height="22" viewBox="0 0 22 22" fill="none" xmlns="http://www.w3.org/2000/svg">
<path fill-rule="evenodd" clip-rule="evenodd" d="M9.56517 2.20001C5.49747 2.20001 2.19995 5.49753 2.19995 9.56523C2.19995 13.6329 5.49747 16.9305 9.56517 16.9305C11.4011 16.9305 13.08 16.2587 14.3698 15.1477L18.861 19.6389C19.0758 19.8537 19.4241 19.8537 19.6389 19.6389C19.8536 19.4241 19.8536 19.0759 19.6389 18.8611L15.1476 14.3699C16.2587 13.0801 16.9304 11.4011 16.9304 9.56523C16.9304 5.49753 13.6329 2.20001 9.56517 2.20001ZM3.29995 9.56523C3.29995 6.10505 6.10499 3.30001 9.56517 3.30001C13.0254 3.30001 15.8304 6.10505 15.8304 9.56523C15.8304 13.0254 13.0254 15.8305 9.56517 15.8305C6.10499 15.8305 3.29995 13.0254 3.29995 9.56523Z" fill="white"/>
</svg>
