<svg width="18" height="18" viewBox="0 0 18 18" fill="none" xmlns="http://www.w3.org/2000/svg">
<path d="M8.99951 17.5263C13.9701 17.5263 17.9995 13.7089 17.9995 8.99995C17.9995 4.29099 13.9701 0.473633 8.99951 0.473633C4.02895 0.473633 -0.000488281 4.29099 -0.000488281 8.99995C-0.000488281 13.7089 4.02895 17.5263 8.99951 17.5263Z" fill="#FF3E5B"/>
<path d="M6.59203 12.761C6.37651 12.7609 6.16967 12.6806 6.01603 12.5374L3.33303 9.99559C3.25338 9.9248 3.18957 9.83956 3.14538 9.74495C3.10119 9.65033 3.07753 9.54827 3.07579 9.44482C3.07405 9.34137 3.09427 9.23864 3.13526 9.14275C3.17625 9.04685 3.23717 8.95973 3.31439 8.88657C3.39162 8.81341 3.48357 8.7557 3.5848 8.71687C3.68603 8.67804 3.79446 8.65888 3.90366 8.66052C4.01285 8.66217 4.12059 8.68459 4.22046 8.72646C4.32033 8.76832 4.4103 8.82877 4.48503 8.90423L6.57903 10.888L12.849 5.0257C12.9244 4.95352 13.0141 4.89621 13.1129 4.8571C13.2118 4.81799 13.3179 4.79785 13.425 4.79785C13.5322 4.79785 13.6383 4.81799 13.7371 4.8571C13.836 4.89621 13.9257 4.95352 14.001 5.0257C14.152 5.17132 14.2366 5.36727 14.2366 5.57138C14.2366 5.7755 14.152 5.97145 14.001 6.11707L7.15503 12.5251C7.08321 12.5988 6.99619 12.6577 6.89935 12.6983C6.80251 12.7389 6.69791 12.7602 6.59203 12.761V12.761Z" fill="white"/>
</svg>
