<svg width="34" height="34" viewBox="0 0 34 34" fill="none" xmlns="http://www.w3.org/2000/svg">
<path fill-rule="evenodd" clip-rule="evenodd" d="M8.50005 5.0999V28.8999H25.5001V11.8999H20.1875C19.6007 11.8999 19.125 11.4242 19.125 10.8374V5.0999H8.50005ZM20.825 6.15844L24.8723 10.1999H20.825V6.15844ZM6.80005 4.4624C6.80005 3.8756 7.27575 3.3999 7.86255 3.3999H20.0288C20.3103 3.3999 20.5803 3.51163 20.7795 3.71056L26.8883 9.81058C27.0879 10.0099 27.2001 10.2804 27.2001 10.5624V29.5374C27.2001 30.1242 26.7244 30.5999 26.1376 30.5999H7.86255C7.27575 30.5999 6.80005 30.1242 6.80005 29.5374V4.4624ZM11.05 15.2999C10.5806 15.2999 10.2 15.6805 10.2 16.1499C10.2 16.6193 10.5806 16.9999 11.05 16.9999H22.95C23.4195 16.9999 23.8 16.6193 23.8 16.1499C23.8 15.6805 23.4195 15.2999 22.95 15.2999H11.05ZM10.2 20.3999C10.2 19.9305 10.5806 19.5499 11.05 19.5499H22.95C23.4195 19.5499 23.8 19.9305 23.8 20.3999C23.8 20.8693 23.4195 21.2499 22.95 21.2499H11.05C10.5806 21.2499 10.2 20.8693 10.2 20.3999ZM11.05 23.7999C10.5806 23.7999 10.2 24.1805 10.2 24.6499C10.2 25.1193 10.5806 25.4999 11.05 25.4999H22.95C23.4195 25.4999 23.8 25.1193 23.8 24.6499C23.8 24.1805 23.4195 23.7999 22.95 23.7999H11.05Z" fill="white"/>
</svg>
