<svg width="34" height="34" viewBox="0 0 34 34" fill="none" xmlns="http://www.w3.org/2000/svg">
<path fill-rule="evenodd" clip-rule="evenodd" d="M8.50005 5.10002V28.9H25.5001V11.9H20.1875C19.6007 11.9 19.125 11.4243 19.125 10.8375V5.10002H8.50005ZM20.825 6.15856L24.8723 10.2H20.825V6.15856ZM6.80005 4.46252C6.80005 3.87572 7.27575 3.40002 7.86255 3.40002H20.0288C20.3103 3.40002 20.5803 3.51176 20.7795 3.71069L26.8883 9.8107C27.0879 10.01 27.2001 10.2805 27.2001 10.5625V29.5375C27.2001 30.1243 26.7244 30.6 26.1376 30.6H7.86255C7.27575 30.6 6.80005 30.1243 6.80005 29.5375V4.46252ZM11.05 15.3C10.5806 15.3 10.2 15.6806 10.2 16.15C10.2 16.6195 10.5806 17 11.05 17H22.95C23.4195 17 23.8 16.6195 23.8 16.15C23.8 15.6806 23.4195 15.3 22.95 15.3H11.05ZM10.2 20.4C10.2 19.9306 10.5806 19.55 11.05 19.55H22.95C23.4195 19.55 23.8 19.9306 23.8 20.4C23.8 20.8695 23.4195 21.25 22.95 21.25H11.05C10.5806 21.25 10.2 20.8695 10.2 20.4ZM11.05 23.8C10.5806 23.8 10.2 24.1806 10.2 24.65C10.2 25.1195 10.5806 25.5 11.05 25.5H22.95C23.4195 25.5 23.8 25.1195 23.8 24.65C23.8 24.1806 23.4195 23.8 22.95 23.8H11.05Z" fill="white"/>
</svg>
