<svg width="40" height="37" viewBox="0 0 40 37" fill="none" xmlns="http://www.w3.org/2000/svg">
<path d="M39.0171 27.424C37.859 26.5791 36.5139 25.9696 35.0729 25.6365C34.8741 25.5894 34.6628 25.6145 34.4841 25.7065C34.3054 25.7985 34.1735 25.9501 34.1164 26.1289C34.0467 26.3028 34.0528 26.4942 34.1335 26.6641C34.2142 26.8341 34.3635 26.9697 34.5509 27.0434C34.7502 27.128 34.9678 27.1808 35.1721 27.2488C36.106 27.5088 36.9831 27.9133 37.7647 28.4442C38.5151 29.0038 38.5235 29.4584 37.7546 29.9832C37.3284 30.2724 36.8691 30.5192 36.3846 30.7195C34.2414 31.5453 31.98 32.0926 29.6677 32.3454C28.3702 32.5221 27.0618 32.6301 25.7585 32.7736C25.5397 32.7848 25.3348 32.8743 25.1888 33.0222C25.0427 33.1701 24.9675 33.3645 24.9795 33.5626C24.9916 33.7608 25.0899 33.9465 25.253 34.079C25.4161 34.2116 25.6306 34.2801 25.8494 34.2696C25.9795 34.2723 26.1097 34.266 26.2388 34.2507C28.3335 33.9728 30.4365 33.7364 32.5196 33.3981C34.3187 33.1304 36.0598 32.6072 37.6788 31.8477C38.2174 31.6374 38.7019 31.3279 39.1014 30.9389C39.5009 30.55 39.8067 30.09 39.9994 29.5883V28.8792C39.8366 28.3174 39.495 27.8114 39.0171 27.424Z" fill="white"/>
<path d="M8.34205 24.3361C8.34205 25.1048 8.42543 25.2189 9.19927 25.4885C12.6782 26.7043 16.1555 27.9246 19.6403 29.1268C19.8824 29.2009 20.1449 29.199 20.3857 29.1216C23.8947 27.9133 27.3962 26.6793 30.8993 25.4545C31.5297 25.234 31.6589 25.0678 31.6598 24.4546C31.6598 22.5179 31.6598 20.5811 31.6598 18.6444H31.6773C31.6773 16.6372 31.6773 14.6299 31.6773 12.6227C31.6915 12.4497 31.6403 12.2774 31.5319 12.1344C31.4235 11.9913 31.2645 11.886 31.0811 11.8358C27.5654 10.6109 24.0498 9.38481 20.5342 8.15741C20.3672 8.09444 20.1881 8.06201 20.0072 8.06201C19.8263 8.06201 19.6472 8.09444 19.4802 8.15741C15.9673 9.38833 12.452 10.6145 8.9341 11.8358C8.74462 11.8859 8.58031 11.9942 8.46938 12.1421C8.35845 12.2899 8.30783 12.4681 8.3262 12.6461C8.3262 12.8583 8.34121 13.0705 8.34205 13.2835C8.34205 16.9677 8.34205 20.6521 8.34205 24.3368V24.3361ZM30.0004 13.6966V14.0364C30.0004 17.2957 30.0004 20.555 30.0004 23.8143C30.0004 24.031 29.9753 24.1669 29.7027 24.2606C26.8358 25.2476 23.9773 26.2519 21.1137 27.2503C21.0428 27.2752 20.967 27.2888 20.836 27.322V26.992C20.836 23.7327 20.836 20.4734 20.836 17.2141C20.836 16.9974 20.8611 16.8531 21.1329 16.761C23.9989 15.7725 26.8583 14.7696 29.7218 13.7713C29.8052 13.7426 29.8886 13.726 30.0012 13.6958L30.0004 13.6966ZM14.6753 11.4582C16.3481 10.8745 18.0192 10.2862 19.6961 9.7123C19.8724 9.64976 20.0667 9.64232 20.2482 9.69115C22.9327 10.6135 25.6133 11.5448 28.2901 12.4853C28.3485 12.5139 28.4042 12.5467 28.4568 12.5834L26.072 13.4141C24.154 14.084 22.2436 14.7576 20.324 15.4176C20.1494 15.4811 19.9563 15.4902 19.7753 15.4432C17.0794 14.5159 14.3893 13.5735 11.6984 12.634C11.6625 12.6212 11.6292 12.6031 11.5183 12.554L14.6753 11.4582ZM10.0056 13.8899C10.0056 13.831 10.0131 13.7728 10.0198 13.6724L16.0287 15.7687C16.9743 16.0987 17.9175 16.4333 18.8639 16.7542C18.9571 16.7719 19.0397 16.8203 19.0957 16.8901C19.1516 16.9599 19.1769 17.0461 19.1666 17.1318C19.1583 20.4495 19.1561 23.7672 19.1599 27.0849C19.1599 27.143 19.1499 27.2004 19.1416 27.2956C19.0413 27.2771 18.9422 27.2536 18.8447 27.2253C15.9951 26.2325 13.1455 25.2398 10.2958 24.247C10.2035 24.2303 10.1215 24.1829 10.0659 24.1141C10.0103 24.0453 9.98525 23.9601 9.99562 23.8754C10.0051 20.5462 10.0073 17.2166 10.0023 13.8869" fill="white"/>
<path d="M21.3269 33.1412C20.2262 32.3687 19.1088 31.6151 17.9914 30.8667C17.8411 30.759 17.6525 30.7044 17.461 30.7133C17.2695 30.7222 17.0882 30.7939 16.9507 30.915C16.8575 30.99 16.7843 31.0831 16.7366 31.1874C16.6889 31.2917 16.668 31.4045 16.6753 31.5171C16.6827 31.6298 16.7183 31.7395 16.7793 31.838C16.8402 31.9364 16.9251 32.0211 17.0275 32.0855C17.4152 32.3695 17.8213 32.6345 18.3025 32.9645C18.1249 32.9645 18.0631 32.9645 18.0014 32.9645C14.8008 32.898 11.6115 32.5931 8.46604 32.053C6.66827 31.7837 4.92189 31.2844 3.27932 30.5699C2.78803 30.3317 2.33354 30.0359 1.9276 29.6901C1.84475 29.6339 1.77751 29.5609 1.73119 29.477C1.68488 29.3931 1.66076 29.3006 1.66076 29.2068C1.66076 29.113 1.68488 29.0205 1.73119 28.9367C1.77751 28.8528 1.84475 28.7798 1.9276 28.7235C2.16726 28.475 2.45316 28.2665 2.77232 28.1073C3.61204 27.7403 4.4776 27.4201 5.33983 27.0962C5.54613 27.0365 5.71998 26.9086 5.82665 26.7379C5.93332 26.5673 5.96494 26.3665 5.91521 26.1756C5.85736 25.985 5.72014 25.8222 5.53243 25.7213C5.34472 25.6205 5.12114 25.5895 4.90872 25.6349C3.50634 25.9631 2.19522 26.5531 1.05954 27.3672C0.729741 27.5758 0.460966 27.854 0.276425 28.1777C0.0918829 28.5014 -0.00287892 28.8609 0.00032265 29.2252C0.00352422 29.5894 0.104593 29.9475 0.294801 30.2685C0.485009 30.5895 0.758638 30.8638 1.09206 31.0676C1.9413 31.6949 2.91088 32.1751 3.95226 32.4842C7.47547 33.5364 11.1385 34.1561 14.8435 34.3269C15.9684 34.4084 17.095 34.4409 18.3267 34.5005C17.8388 34.8336 17.4177 35.1092 17.0116 35.403C16.921 35.4606 16.8441 35.534 16.7854 35.619C16.7267 35.704 16.6874 35.7988 16.6698 35.8978C16.6523 35.9968 16.6568 36.098 16.6832 36.1953C16.7096 36.2927 16.7572 36.3843 16.8234 36.4647C16.8895 36.5451 16.9728 36.6127 17.0682 36.6634C17.1637 36.7142 17.2695 36.7471 17.3792 36.7602C17.489 36.7733 17.6005 36.7663 17.7072 36.7397C17.814 36.7131 17.9137 36.6673 18.0006 36.6052C19.1124 35.8646 20.2162 35.1145 21.3119 34.3548C21.4234 34.2895 21.5152 34.2003 21.5793 34.0951C21.6434 33.9898 21.6777 33.8718 21.6792 33.7517C21.6807 33.6315 21.6493 33.5129 21.5878 33.4063C21.5264 33.2998 21.4367 33.2088 21.3269 33.1412" fill="white"/>
<path d="M13.6523 6.00512C13.4302 6.00708 13.2085 5.98554 12.9919 5.94093C12.8035 5.90139 12.6204 5.84366 12.4457 5.76875C12.2891 5.70152 12.1409 5.61924 12.0037 5.52332C11.8782 5.43541 11.7619 5.33734 11.656 5.23032L12.0554 4.76513C12.2462 4.94109 12.4618 5.09344 12.6967 5.21823C12.9739 5.35778 13.2878 5.42619 13.6048 5.41609C13.9317 5.42951 14.2528 5.33445 14.5079 5.14876C14.6244 5.05825 14.7166 4.94493 14.7776 4.81736C14.8385 4.68979 14.8666 4.55134 14.8598 4.41247C14.8615 4.25996 14.8274 4.10885 14.7597 3.96919C14.6875 3.82806 14.5742 3.70744 14.432 3.6203C14.2505 3.51043 14.0471 3.43349 13.8333 3.39376C13.5332 3.33805 13.2272 3.31272 12.921 3.31824V2.77603C13.1944 2.78169 13.4676 2.75632 13.734 2.70051C13.9249 2.66021 14.1055 2.58715 14.266 2.48529C14.3943 2.40271 14.4948 2.28951 14.5562 2.1583C14.6131 2.02964 14.6414 1.8921 14.6396 1.75354C14.6464 1.6354 14.6248 1.51734 14.5765 1.40746C14.5281 1.29758 14.4541 1.19847 14.3594 1.11693C14.1467 0.953962 13.873 0.871 13.5948 0.885097C13.3512 0.882823 13.1109 0.936059 12.896 1.03991C12.6772 1.14775 12.4772 1.28413 12.3023 1.44467L11.8853 0.996861C12.1156 0.798782 12.3766 0.632154 12.66 0.502228C12.9601 0.369502 13.2908 0.303242 13.6248 0.308906C13.8727 0.306382 14.1196 0.338215 14.3569 0.403301C14.5658 0.460202 14.761 0.552169 14.9323 0.674406C15.093 0.791079 15.2214 0.939995 15.3076 1.10938C15.3998 1.29617 15.4454 1.49911 15.441 1.7037C15.4542 2.00095 15.3458 2.29215 15.1366 2.52154C14.9198 2.7427 14.6455 2.91141 14.3386 3.0124V3.04713C14.5175 3.08565 14.6902 3.14505 14.8523 3.22384C15.0081 3.30003 15.149 3.39904 15.2692 3.51685C15.3887 3.63483 15.4827 3.77214 15.546 3.92162C15.6147 4.08664 15.6486 4.26183 15.6461 4.43815C15.6497 4.66412 15.5961 4.88784 15.4893 5.09212C15.3881 5.28319 15.2422 5.45198 15.0616 5.58675C14.8741 5.72488 14.6597 5.8299 14.4295 5.89637C14.1785 5.96982 13.9161 6.00653 13.6523 6.00512V6.00512ZM18.6806 6.00512C18.3948 6.00747 18.112 5.95146 17.8534 5.84125C17.5926 5.72676 17.3661 5.55711 17.193 5.34661C16.991 5.09805 16.8412 4.81802 16.751 4.52046C16.6363 4.14329 16.5819 3.75319 16.5892 3.36204C16.5785 2.88703 16.6425 2.41307 16.7794 1.95441C16.8816 1.61172 17.056 1.29016 17.293 1.00743C17.4875 0.778485 17.7401 0.59535 18.0293 0.473532C18.3028 0.362386 18.5993 0.305483 18.8991 0.30664C19.1934 0.299469 19.4852 0.356992 19.7496 0.474287C19.9789 0.580578 20.1862 0.721846 20.3625 0.891893L19.9256 1.33064C19.8001 1.1995 19.6466 1.09264 19.4744 1.0165C19.3045 0.939869 19.1173 0.900057 18.9274 0.9002C18.7204 0.899876 18.5159 0.941143 18.3287 1.02103C18.127 1.11167 17.9547 1.24798 17.8284 1.41673C17.665 1.6356 17.5458 1.87903 17.4765 2.13565C17.378 2.49454 17.329 2.8631 17.3305 3.2329C17.5134 3.02622 17.7403 2.85493 17.9976 2.72921C18.2268 2.61176 18.4848 2.54815 18.7481 2.54419C18.9786 2.53408 19.2089 2.56627 19.4253 2.63881C19.6417 2.71135 19.8397 2.82276 20.0073 2.96633C20.1758 3.13934 20.3043 3.34127 20.3849 3.56013C20.4656 3.77898 20.4968 4.01029 20.4768 4.2403C20.4805 4.48599 20.4321 4.73005 20.3342 4.95921C20.2455 5.16541 20.1132 5.35395 19.9448 5.51426C19.7827 5.66757 19.5889 5.79048 19.3744 5.87598C19.1557 5.96268 18.9193 6.00668 18.6806 6.00512V6.00512ZM18.6806 5.44554C18.8254 5.44694 18.9685 5.41745 19.0984 5.35945C19.2276 5.30039 19.3411 5.21666 19.4311 5.11402C19.5301 5.00138 19.6058 4.87347 19.6546 4.73644C19.7116 4.57669 19.7397 4.40967 19.738 4.24181C19.7571 3.93754 19.6596 3.63663 19.4619 3.38998C19.3574 3.2813 19.2263 3.19623 19.0791 3.14155C18.9319 3.08688 18.7726 3.06412 18.6139 3.07508C18.3894 3.08207 18.1704 3.13969 17.9768 3.24272C17.721 3.37873 17.5057 3.56926 17.3497 3.79777C17.3627 4.23407 17.5056 4.65909 17.7633 5.02793C17.8657 5.16121 18.0033 5.26921 18.1635 5.34214C18.3236 5.41506 18.5014 5.45061 18.6806 5.44554V5.44554ZM23.2244 6.00512C22.9335 6.0109 22.6464 5.94512 22.3935 5.8148C22.1406 5.68448 21.9315 5.49448 21.7885 5.26505C21.4044 4.61252 21.2267 3.87666 21.2748 3.13851C21.2249 2.40579 21.4029 1.67509 21.7885 1.02933C21.9346 0.803794 22.1448 0.617816 22.3972 0.490726C22.6495 0.363636 22.9349 0.300073 23.2236 0.30664C23.5109 0.300771 23.7946 0.364708 24.0454 0.491802C24.2962 0.618896 24.5048 0.804506 24.6495 1.02933C25.0351 1.67509 25.213 2.40579 25.1632 3.13851C25.2113 3.87666 25.0336 4.61252 24.6495 5.26505C24.5079 5.4936 24.3005 5.68311 24.0494 5.81342C23.7983 5.94374 23.5129 6.00998 23.2236 6.00512H23.2244ZM23.2244 5.43723C23.3957 5.43875 23.5632 5.39204 23.7039 5.30357C23.8638 5.1951 23.9911 5.05204 24.0741 4.88747C24.1926 4.66117 24.2743 4.42056 24.3168 4.17309C24.3777 3.83006 24.4056 3.48289 24.4002 3.13549C24.4057 2.78959 24.3778 2.44391 24.3168 2.10242C24.275 1.85892 24.1932 1.62244 24.0741 1.40087C23.9894 1.24144 23.8618 1.10383 23.703 1.00064C23.561 0.91468 23.3936 0.869663 23.2227 0.871503C23.0507 0.870159 22.8821 0.915102 22.7382 1.00064C22.5773 1.10268 22.4481 1.24052 22.363 1.40087C22.2439 1.62244 22.1621 1.85892 22.1203 2.10242C22.0593 2.44391 22.0314 2.78959 22.037 3.13549C21.9937 3.7345 22.1054 4.33438 22.363 4.88747C22.4333 5.04403 22.5518 5.179 22.7043 5.27633C22.8569 5.37366 23.0371 5.42924 23.2236 5.43648L23.2244 5.43723ZM27.1595 2.20966C27.0051 2.2109 26.852 2.18526 26.7083 2.13414C26.5674 2.08336 26.4383 2.00879 26.3281 1.91439C26.2143 1.81592 26.1248 1.69677 26.0654 1.56475C26.0001 1.42113 25.9677 1.26696 25.9704 1.11165C25.9673 0.953854 25.9997 0.797143 26.0654 0.650995C26.1257 0.520017 26.2145 0.401364 26.3264 0.302109C26.4354 0.20456 26.5646 0.127557 26.7067 0.0755595C26.8503 0.0244377 27.0035 -0.00119966 27.1578 4.31109e-05C27.3121 -0.00119966 27.4653 0.0244377 27.6089 0.0755595C27.751 0.127557 27.8802 0.20456 27.9892 0.302109C28.1011 0.401364 28.1899 0.520017 28.2502 0.650995C28.3159 0.797143 28.3483 0.953854 28.3452 1.11165C28.3479 1.26696 28.3155 1.42113 28.2502 1.56475C28.1906 1.69474 28.1017 1.81203 27.9892 1.9091C27.8789 2.0035 27.7499 2.07808 27.6089 2.12885C27.4659 2.18143 27.313 2.20861 27.1586 2.2089L27.1595 2.20966ZM27.1595 1.81395C27.2558 1.81652 27.3516 1.80017 27.4403 1.76602C27.5289 1.73186 27.6084 1.68072 27.6731 1.6161C27.8081 1.47918 27.8795 1.30036 27.8724 1.11693C27.8817 0.927963 27.8104 0.743001 27.6731 0.600399C27.6084 0.53578 27.5289 0.484633 27.4403 0.450479C27.3516 0.416324 27.2558 0.399971 27.1595 0.402546C27.0631 0.399971 26.9674 0.416324 26.8787 0.450479C26.79 0.484633 26.7106 0.53578 26.6458 0.600399C26.5086 0.743001 26.4372 0.927963 26.4465 1.11693C26.4394 1.30036 26.5108 1.47918 26.6458 1.6161C26.7105 1.68048 26.7899 1.73143 26.8784 1.76545C26.9669 1.79947 27.0625 1.81575 27.1586 1.81319L27.1595 1.81395Z" fill="white"/>
</svg>
