<svg width="34" height="34" viewBox="0 0 34 34" fill="none" xmlns="http://www.w3.org/2000/svg">
<path fill-rule="evenodd" clip-rule="evenodd" d="M18.7 5.94995C19.1695 5.94995 19.55 6.33051 19.55 6.79995V9.77495H22.525C22.9945 9.77495 23.375 10.1555 23.375 10.625C23.375 11.0944 22.9945 11.475 22.525 11.475H19.55V14.45C19.55 14.9194 19.1695 15.3 18.7 15.3C18.2306 15.3 17.85 14.9194 17.85 14.45V11.475H14.875C14.4056 11.475 14.025 11.0944 14.025 10.625C14.025 10.1555 14.4056 9.77495 14.875 9.77495H17.85V6.79995C17.85 6.33051 18.2306 5.94995 18.7 5.94995ZM28.1559 16.3448C28.4955 16.1646 28.9168 16.2912 29.1008 16.6286C29.2465 16.8957 29.2035 17.2263 28.9942 17.4472L22.9406 23.8372C22.5003 24.3019 21.9504 24.6487 21.3413 24.8458L16.9195 26.2764C16.0393 26.5611 15.0857 26.5173 14.2354 26.1528L11.8659 25.1374C11.4427 24.956 10.9871 24.8625 10.5266 24.8625H8.50002V18.0625H13.3305C13.3946 18.0625 13.458 18.0753 13.517 18.1003L17.5081 19.7888C17.7722 19.9006 17.8922 20.2081 17.7735 20.4691C17.6691 20.6989 17.4122 20.8176 17.1695 20.7483L12.346 19.3702C11.8947 19.2412 11.4242 19.5026 11.2952 19.9539C11.1663 20.4053 11.4276 20.8758 11.879 21.0047L16.7025 22.3829C17.7546 22.6835 18.8683 22.1688 19.3211 21.1726C19.3479 21.1137 19.3719 21.0543 19.3931 20.9944L28.1559 16.3448ZM10.5266 26.5625H8.50002V27.625C8.50002 28.0944 8.11947 28.475 7.65002 28.475H3.40002V14.875H7.65002C8.11947 14.875 8.50002 15.2555 8.50002 15.725V16.3625H13.3305C13.6222 16.3625 13.9108 16.421 14.1794 16.5346L18.1705 18.2232C18.6338 18.4192 18.9947 18.7541 19.2263 19.1585L27.3591 14.8431C28.5213 14.2264 29.9633 14.6596 30.5933 15.8146C31.092 16.7289 30.9446 17.8604 30.2283 18.6164L24.1747 25.0063C23.5387 25.6776 22.7444 26.1786 21.8646 26.4633L17.4428 27.8938C16.1714 28.3052 14.794 28.2418 13.5657 27.7154L11.1963 26.6999C10.9847 26.6092 10.7568 26.5625 10.5266 26.5625ZM6.80002 16.575H5.10002V26.775H6.80002V16.575Z" fill="white"/>
</svg>
