<svg width="14" height="14" viewBox="0 0 14 14" fill="none" xmlns="http://www.w3.org/2000/svg">
<path d="M7 14C10.866 14 14 10.866 14 7C14 3.13401 10.866 0 7 0C3.13401 0 0 3.13401 0 7C0 10.866 3.13401 14 7 14Z" fill="#FF3E5B"/>
<path d="M5.12788 10.0878C4.96026 10.0877 4.79937 10.0218 4.67988 9.90423L2.5931 7.81745C2.53116 7.75933 2.48152 7.68936 2.44715 7.61168C2.41278 7.534 2.39438 7.45021 2.39302 7.36528C2.39167 7.28034 2.4074 7.19601 2.43928 7.11728C2.47116 7.03854 2.51854 6.96702 2.57861 6.90696C2.63867 6.8469 2.71019 6.79952 2.78892 6.76764C2.86766 6.73576 2.95199 6.72002 3.03692 6.72138C3.12185 6.72273 3.20565 6.74114 3.28332 6.77551C3.361 6.80988 3.43098 6.85951 3.4891 6.92145L5.11777 8.55012L9.99443 3.73723C10.053 3.67797 10.1228 3.63092 10.1997 3.59881C10.2766 3.5667 10.3591 3.55017 10.4424 3.55017C10.5258 3.55017 10.6083 3.5667 10.6852 3.59881C10.7621 3.63092 10.8318 3.67797 10.8904 3.73723C11.0079 3.85678 11.0736 4.01766 11.0736 4.18523C11.0736 4.3528 11.0079 4.51368 10.8904 4.63323L5.56577 9.89412C5.50991 9.95464 5.44222 10.003 5.3669 10.0364C5.29159 10.0697 5.21023 10.0872 5.12788 10.0878Z" fill="white"/>
</svg>
