<svg width="24" height="24" viewBox="0 0 24 24" fill="none" xmlns="http://www.w3.org/2000/svg">
<path d="M11.7334 16.309C11.5647 16.309 11.403 16.242 11.2837 16.1228C11.1644 16.0035 11.0974 15.8417 11.0974 15.673V2.53004C11.0974 2.36137 11.1644 2.1996 11.2837 2.08032C11.403 1.96105 11.5647 1.89404 11.7334 1.89404C11.9021 1.89404 12.0639 1.96105 12.1831 2.08032C12.3024 2.1996 12.3694 2.36137 12.3694 2.53004V15.673C12.3694 15.8417 12.3024 16.0035 12.1831 16.1228C12.0639 16.242 11.9021 16.309 11.7334 16.309Z" fill="white"/>
<path d="M11.7383 16.3089C11.6548 16.3092 11.5721 16.2929 11.495 16.2607C11.4179 16.2286 11.3479 16.1814 11.2893 16.1219L7.89733 12.7309C7.83824 12.6718 7.79136 12.6017 7.75938 12.5245C7.7274 12.4473 7.71094 12.3645 7.71094 12.2809C7.71094 12.1974 7.7274 12.1146 7.75938 12.0374C7.79136 11.9602 7.83824 11.89 7.89733 11.8309C8.01668 11.7116 8.17855 11.6445 8.34733 11.6445C8.43091 11.6445 8.51366 11.661 8.59087 11.693C8.66808 11.725 8.73824 11.7718 8.79733 11.8309L11.7403 14.7729L14.6833 11.8309C14.7424 11.7718 14.8126 11.725 14.8898 11.693C14.967 11.661 15.0498 11.6445 15.1333 11.6445C15.2169 11.6445 15.2997 11.661 15.3769 11.693C15.4541 11.725 15.5242 11.7718 15.5833 11.8309C15.6424 11.89 15.6893 11.9602 15.7213 12.0374C15.7533 12.1146 15.7697 12.1974 15.7697 12.2809C15.7697 12.3645 15.7533 12.4473 15.7213 12.5245C15.6893 12.6017 15.6424 12.6718 15.5833 12.7309L12.1903 16.1219C12.131 16.1813 12.0605 16.2283 11.9829 16.2604C11.9054 16.2925 11.8223 16.309 11.7383 16.3089Z" fill="white"/>
<path d="M19.5815 22.244H3.8945C3.27618 22.2434 2.68333 21.9976 2.24611 21.5603C1.80889 21.1231 1.56303 20.5303 1.5625 19.912V16.096C1.5625 15.9273 1.62951 15.7655 1.74878 15.6462C1.86805 15.527 2.02982 15.46 2.1985 15.46C2.36718 15.46 2.52895 15.527 2.64822 15.6462C2.76749 15.7655 2.8345 15.9273 2.8345 16.096V19.912C2.83503 20.1929 2.94688 20.4622 3.14555 20.6609C3.34422 20.8596 3.61353 20.9714 3.8945 20.972H19.5815C19.8624 20.9714 20.1316 20.8596 20.3301 20.6608C20.5286 20.4621 20.6402 20.1928 20.6405 19.912V16.096C20.6405 16.0124 20.6569 15.9297 20.6889 15.8526C20.7209 15.7754 20.7677 15.7053 20.8268 15.6462C20.8858 15.5872 20.9559 15.5403 21.0331 15.5084C21.1103 15.4764 21.193 15.46 21.2765 15.46C21.36 15.46 21.4427 15.4764 21.5199 15.5084C21.597 15.5403 21.6672 15.5872 21.7262 15.6462C21.7853 15.7053 21.8321 15.7754 21.8641 15.8526C21.896 15.9297 21.9125 16.0124 21.9125 16.096V19.912C21.912 20.5301 21.6662 21.1228 21.2292 21.56C20.7922 21.9972 20.1996 22.2432 19.5815 22.244Z" fill="white"/>
</svg>
