<svg width="18" height="18" viewBox="0 0 18 18" fill="none" xmlns="http://www.w3.org/2000/svg">
<path d="M8.06463 16.281C7.99258 16.2825 7.92131 16.2659 7.85742 16.2327C7.79352 16.1994 7.73906 16.1507 7.69905 16.0909L4.31409 11.4784C3.29034 10.3246 2.67994 8.86438 2.57874 7.32715C2.57933 5.87278 3.15905 4.47816 4.19047 3.44977C5.2219 2.42138 6.62064 1.84337 8.0793 1.84277H8.10074C9.55465 1.85197 10.9461 2.43345 11.972 3.46062C12.998 4.48779 13.5755 5.87749 13.5787 7.32715C13.4822 8.86672 12.8722 10.3299 11.8456 11.484C11.6482 11.754 8.43698 16.0965 8.43698 16.0965C8.39213 16.1525 8.33558 16.198 8.27126 16.2298C8.20695 16.2617 8.13643 16.2792 8.06463 16.281V16.281ZM8.04996 2.75402C6.83597 2.7576 5.67293 3.24102 4.81588 4.09829C3.95883 4.95557 3.4777 6.11672 3.47801 7.32715C3.5893 8.67002 4.13721 9.93997 5.03847 10.944L8.05899 15.0491C8.90749 13.9039 10.9328 11.1555 11.0942 10.944C11.9946 9.93967 12.5417 8.66975 12.6524 7.32715C12.6515 6.11689 12.1698 4.95625 11.3128 4.09921C10.4558 3.24216 9.29312 2.75849 8.0793 2.75402H8.04996Z" fill="white"/>
<path d="M8.02741 9.69641C7.46951 9.69641 6.92413 9.53146 6.46025 9.22242C5.99637 8.91338 5.63483 8.47413 5.42133 7.96021C5.20783 7.44629 5.15196 6.88079 5.26081 6.33522C5.36965 5.78965 5.6383 5.28851 6.0328 4.89517C6.4273 4.50184 6.92991 4.23397 7.4771 4.12545C8.02428 4.01693 8.59145 4.07263 9.10688 4.2855C9.62231 4.49837 10.0629 4.85886 10.3728 5.32137C10.6828 5.78388 10.8482 6.32765 10.8482 6.88391C10.8482 7.62983 10.551 8.3452 10.022 8.87265C9.49301 9.4001 8.77553 9.69641 8.02741 9.69641V9.69641ZM8.02741 4.97816C7.64963 4.97727 7.28008 5.08815 6.96553 5.29677C6.65098 5.50539 6.40559 5.80236 6.2604 6.1501C6.11521 6.49784 6.07676 6.88071 6.14991 7.25025C6.22306 7.61979 6.40453 7.95938 6.67135 8.22604C6.93816 8.4927 7.27832 8.67444 7.64878 8.74825C8.01924 8.82206 8.40333 8.78463 8.75244 8.64069C9.10154 8.49676 9.39997 8.25278 9.60995 7.93966C9.81993 7.62653 9.93201 7.25833 9.93201 6.88166C9.93172 6.37769 9.7311 5.89438 9.37411 5.5376C9.01712 5.18082 8.53286 4.97965 8.02741 4.97816V4.97816Z" fill="white"/>
</svg>
