<svg width="55" height="49" viewBox="0 0 55 49" fill="none" xmlns="http://www.w3.org/2000/svg">
<path d="M3.51123 28.0548C3.64295 28.055 3.76945 28.0033 3.86323 27.9108L4.61623 27.1578C4.67354 27.1148 4.72095 27.06 4.75523 26.9971C4.78952 26.9342 4.8099 26.8647 4.81497 26.7933C4.82005 26.7218 4.80972 26.6501 4.78467 26.583C4.75962 26.5159 4.72044 26.4549 4.66979 26.4043C4.61913 26.3536 4.55818 26.3144 4.49107 26.2894C4.42396 26.2643 4.35224 26.254 4.28079 26.2591C4.20933 26.2641 4.1398 26.2845 4.07691 26.3188C4.01401 26.3531 3.95921 26.4005 3.91623 26.4578L3.16823 27.2108C3.09925 27.2796 3.0522 27.3674 3.03305 27.4629C3.0139 27.5585 3.0235 27.6576 3.06063 27.7477C3.09776 27.8378 3.16076 27.9148 3.24167 27.9691C3.32259 28.0235 3.41778 28.0526 3.51523 28.0528L3.51123 28.0548Z" fill="white"/>
<path d="M0.147929 30.9282C0.241394 31.0199 0.367052 31.0712 0.497929 31.0712C0.628805 31.0712 0.754465 31.0199 0.847929 30.9282L1.59593 30.1752C1.66814 30.079 1.7032 29.9599 1.69467 29.8398C1.68614 29.7198 1.63459 29.6068 1.54948 29.5217C1.46438 29.4366 1.35143 29.385 1.23137 29.3765C1.11132 29.368 0.992215 29.403 0.895929 29.4752L0.142929 30.2282C0.0513156 30.3217 0 30.4474 0 30.5782C0 30.7091 0.0513156 30.8348 0.142929 30.9282H0.147929Z" fill="white"/>
<path d="M0.146957 26.4613C0.0553439 26.5548 0.00402832 26.6804 0.00402832 26.8113C0.00402832 26.9422 0.0553439 27.0678 0.146957 27.1613L0.899958 27.9143C0.94592 27.9602 1.00049 27.9967 1.06054 28.0216C1.12059 28.0465 1.18496 28.0593 1.24996 28.0593C1.31496 28.0593 1.37932 28.0465 1.43938 28.0216C1.49943 27.9967 1.55399 27.9602 1.59996 27.9143C1.64592 27.8683 1.68238 27.8138 1.70725 27.7537C1.73213 27.6937 1.74493 27.6293 1.74493 27.5643C1.74493 27.4993 1.73213 27.4349 1.70725 27.3749C1.68238 27.3148 1.64592 27.2602 1.59996 27.2143L0.851957 26.4613C0.758493 26.3697 0.632833 26.3184 0.501957 26.3184C0.371081 26.3184 0.245422 26.3697 0.151958 26.4613H0.146957Z" fill="white"/>
<path d="M3.16359 30.176L3.91159 30.929C3.95458 30.9863 4.00937 31.0337 4.07227 31.068C4.13516 31.1023 4.20469 31.1226 4.27615 31.1277C4.34761 31.1328 4.41932 31.1225 4.48643 31.0974C4.55355 31.0724 4.61449 31.0332 4.66515 30.9825C4.7158 30.9319 4.75498 30.8709 4.78003 30.8038C4.80508 30.7367 4.81541 30.665 4.81034 30.5935C4.80526 30.5221 4.78488 30.4526 4.7506 30.3897C4.71631 30.3268 4.6689 30.272 4.61159 30.229L3.85859 29.476C3.76231 29.4038 3.6432 29.3687 3.52315 29.3772C3.4031 29.3858 3.29015 29.4373 3.20504 29.5224C3.11993 29.6075 3.06838 29.7205 3.05985 29.8405C3.05132 29.9606 3.08638 30.0797 3.15859 30.176H3.16359Z" fill="white"/>
<path d="M45.1824 7.57688C45.3141 7.57712 45.4406 7.52538 45.5344 7.43288L46.2874 6.67988C46.3596 6.5836 46.3947 6.46449 46.3861 6.34444C46.3776 6.22438 46.3261 6.11144 46.2409 6.02633C46.1558 5.94123 46.0429 5.88967 45.9228 5.88114C45.8028 5.87261 45.6837 5.90767 45.5874 5.97988L44.8394 6.72788C44.772 6.79772 44.7264 6.88565 44.7082 6.98095C44.6899 7.07625 44.6998 7.17481 44.7365 7.2646C44.7733 7.35439 44.8354 7.43154 44.9153 7.48663C44.9952 7.54173 45.0894 7.57239 45.1864 7.57488L45.1824 7.57688Z" fill="white"/>
<path d="M41.8206 10.4589C41.9141 10.5505 42.0398 10.6018 42.1706 10.6018C42.3015 10.6018 42.4272 10.5505 42.5206 10.4589L43.2686 9.70588C43.3321 9.61058 43.3609 9.49639 43.3503 9.38239C43.3397 9.26839 43.2903 9.16148 43.2103 9.07953C43.1304 8.99758 43.0247 8.94556 42.911 8.93215C42.7973 8.91874 42.6824 8.94477 42.5856 9.00588L41.8326 9.75888C41.7394 9.85076 41.6859 9.97554 41.6837 10.1064C41.6814 10.2373 41.7306 10.3639 41.8206 10.4589Z" fill="white"/>
<path d="M42.5867 7.4478C42.6297 7.50511 42.6844 7.55252 42.7473 7.58681C42.8102 7.6211 42.8798 7.64147 42.9512 7.64655C43.0227 7.65162 43.0944 7.64129 43.1615 7.61624C43.2286 7.59119 43.2896 7.55201 43.3402 7.50136C43.3909 7.4507 43.4301 7.38976 43.4551 7.32264C43.4802 7.25553 43.4905 7.18382 43.4854 7.11236C43.4803 7.04091 43.46 6.97137 43.4257 6.90848C43.3914 6.84558 43.344 6.79079 43.2867 6.74781L42.5387 5.9998C42.4957 5.9425 42.4409 5.89509 42.378 5.8608C42.3151 5.82651 42.2456 5.80614 42.1741 5.80106C42.1027 5.79598 42.0309 5.80632 41.9638 5.83137C41.8967 5.85642 41.8358 5.8956 41.7851 5.94625C41.7345 5.99691 41.6953 6.05785 41.6702 6.12497C41.6452 6.19208 41.6349 6.26379 41.6399 6.33525C41.645 6.40671 41.6654 6.47624 41.6997 6.53913C41.734 6.60203 41.7814 6.65682 41.8387 6.69981L42.5867 7.4478Z" fill="white"/>
<path d="M44.836 9.70625L45.584 10.4593C45.627 10.5166 45.6818 10.564 45.7447 10.5983C45.8076 10.6325 45.8771 10.6529 45.9485 10.658C46.02 10.6631 46.0917 10.6527 46.1588 10.6277C46.2259 10.6026 46.2869 10.5635 46.3375 10.5128C46.3882 10.4621 46.4274 10.4012 46.4524 10.3341C46.4775 10.267 46.4878 10.1953 46.4827 10.1238C46.4776 10.0523 46.4573 9.98282 46.423 9.91992C46.3887 9.85702 46.3413 9.80223 46.284 9.75925L45.556 9.00625C45.4597 8.93403 45.3406 8.89898 45.2205 8.90751C45.1005 8.91604 44.9875 8.96759 44.9024 9.0527C44.8173 9.1378 44.7658 9.25075 44.7572 9.3708C44.7487 9.49086 44.7838 9.60996 44.856 9.70625H44.836Z" fill="white"/>
<path d="M13.5986 6.14954C13.7304 6.14978 13.8569 6.09803 13.9506 6.00554L14.7036 5.25254C14.761 5.20956 14.8084 5.15476 14.8426 5.09187C14.8769 5.02897 14.8973 4.95944 14.9024 4.88798C14.9075 4.81653 14.8971 4.74481 14.8721 4.6777C14.847 4.61059 14.8079 4.54964 14.7572 4.49899C14.7065 4.44833 14.6456 4.40915 14.5785 4.3841C14.5114 4.35906 14.4397 4.34872 14.3682 4.3538C14.2967 4.35888 14.2272 4.37925 14.1643 4.41354C14.1014 4.44783 14.0466 4.49523 14.0036 4.55254L13.2506 5.30554C13.1846 5.37588 13.1404 5.46382 13.1232 5.55875C13.106 5.65368 13.1167 5.75155 13.1539 5.84055C13.1911 5.92955 13.2533 6.00589 13.3329 6.06036C13.4125 6.11484 13.5062 6.14511 13.6026 6.14754L13.5986 6.14954Z" fill="white"/>
<path d="M10.2367 9.02175C10.3301 9.11336 10.4558 9.16468 10.5867 9.16468C10.7176 9.16468 10.8432 9.11336 10.9367 9.02175L11.6897 8.26875C11.7619 8.17246 11.797 8.05336 11.7884 7.93331C11.7799 7.81325 11.7283 7.7003 11.6432 7.6152C11.5581 7.53009 11.4452 7.47854 11.3251 7.47001C11.2051 7.46148 11.086 7.49654 10.9897 7.56875L10.2367 8.32175C10.1451 8.41522 10.0938 8.54087 10.0938 8.67175C10.0938 8.80263 10.1451 8.92829 10.2367 9.02175Z" fill="white"/>
<path d="M10.9882 6.00749C11.081 6.10032 11.2069 6.15247 11.3382 6.15247C11.4694 6.15247 11.5953 6.10032 11.6882 6.00749C11.781 5.91467 11.8331 5.78877 11.8331 5.65749C11.8331 5.52622 11.781 5.40032 11.6882 5.30749L10.9352 4.55449C10.8922 4.49718 10.8374 4.44978 10.7745 4.41549C10.7116 4.3812 10.6421 4.36083 10.5706 4.35575C10.4991 4.35067 10.4274 4.36101 10.3603 4.38606C10.2932 4.41111 10.2323 4.45029 10.1816 4.50094C10.1309 4.55159 10.0918 4.61254 10.0667 4.67965C10.0417 4.74677 10.0313 4.81848 10.0364 4.88994C10.0415 4.96139 10.0619 5.03092 10.0962 5.09382C10.1304 5.15672 10.1778 5.21151 10.2352 5.25449L10.9882 6.00749Z" fill="white"/>
<path d="M13.2484 8.27047L14.0014 9.02347C14.0444 9.08078 14.0992 9.12818 14.1621 9.16247C14.225 9.19676 14.2945 9.21713 14.366 9.22221C14.4375 9.22729 14.5092 9.21695 14.5763 9.1919C14.6434 9.16685 14.7043 9.12768 14.755 9.07702C14.8056 9.02637 14.8448 8.96542 14.8699 8.89831C14.8949 8.83119 14.9053 8.75948 14.9002 8.68802C14.8951 8.61657 14.8747 8.54704 14.8404 8.48414C14.8062 8.42125 14.7587 8.36645 14.7014 8.32347L13.9484 7.58047C13.8522 7.50825 13.733 7.4732 13.613 7.48173C13.4929 7.49026 13.38 7.54181 13.2949 7.62692C13.2098 7.71202 13.1582 7.82497 13.1497 7.94502C13.1412 8.06508 13.1762 8.18418 13.2484 8.28047V8.27047Z" fill="white"/>
<path d="M46.1621 41.1702C46.1621 41.2877 46.1969 41.4025 46.2622 41.5002C46.3275 41.5979 46.4203 41.674 46.5288 41.719C46.6373 41.7639 46.7568 41.7757 46.872 41.7528C46.9872 41.7298 47.0931 41.6733 47.1761 41.5902C47.2592 41.5071 47.3158 41.4013 47.3387 41.2861C47.3616 41.1708 47.3499 41.0514 47.3049 40.9429C47.2599 40.8343 47.1838 40.7416 47.0861 40.6763C46.9884 40.611 46.8736 40.5762 46.7561 40.5762C46.5986 40.5762 46.4475 40.6388 46.3361 40.7502C46.2247 40.8615 46.1621 41.0126 46.1621 41.1702Z" fill="white"/>
<path d="M53.2466 10.9641C53.2466 10.8466 53.2118 10.7318 53.1465 10.6341C53.0812 10.5364 52.9884 10.4603 52.8799 10.4153C52.7714 10.3704 52.6519 10.3586 52.5367 10.3815C52.4215 10.4045 52.3156 10.461 52.2326 10.5441C52.1495 10.6272 52.0929 10.733 52.07 10.8482C52.0471 10.9635 52.0588 11.0829 52.1038 11.1914C52.1488 11.3 52.2249 11.3927 52.3226 11.458C52.4203 11.5233 52.5351 11.5581 52.6526 11.5581C52.8101 11.5581 52.9612 11.4955 53.0726 11.3841C53.184 11.2727 53.2466 11.1217 53.2466 10.9641Z" fill="white"/>
<path d="M41.186 27.2933C41.1879 27.1747 41.1544 27.0584 41.0896 26.9591C41.0249 26.8598 40.9319 26.7821 40.8227 26.7361C40.7135 26.69 40.593 26.6777 40.4767 26.7008C40.3604 26.7238 40.2537 26.7811 40.1702 26.8652C40.0868 26.9494 40.0304 27.0566 40.0084 27.1731C39.9864 27.2896 39.9997 27.41 40.0467 27.5188C40.0936 27.6276 40.1721 27.7199 40.2719 27.7838C40.3718 27.8477 40.4885 27.8802 40.607 27.8773C40.7602 27.8734 40.906 27.8105 41.0139 27.7017C41.1218 27.5928 41.1834 27.4465 41.186 27.2933Z" fill="white"/>
<path d="M38.05 4.35692C38.1679 4.35791 38.2834 4.32379 38.3818 4.2589C38.4803 4.19402 38.5572 4.1013 38.6028 3.99256C38.6483 3.88382 38.6605 3.76397 38.6378 3.64828C38.615 3.5326 38.5583 3.4263 38.475 3.34292C38.3916 3.25955 38.2853 3.20288 38.1696 3.18012C38.0539 3.15736 37.9341 3.16954 37.8253 3.21512C37.7166 3.2607 37.6239 3.3376 37.559 3.43605C37.4941 3.53449 37.46 3.65002 37.461 3.76793C37.4623 3.92373 37.5247 4.07279 37.6349 4.18297C37.7451 4.29314 37.8941 4.35562 38.05 4.35692Z" fill="white"/>
<path d="M14.4064 13.4014C14.2694 13.4014 14.1366 13.4488 14.0306 13.5355C13.9245 13.6222 13.8517 13.7429 13.8244 13.8771C13.7971 14.0114 13.8171 14.1509 13.8809 14.2722C13.9448 14.3934 14.0485 14.4888 14.1747 14.5423C14.3008 14.5957 14.4416 14.604 14.5731 14.5655C14.7046 14.5271 14.8187 14.4444 14.8963 14.3315C14.9738 14.2185 15.0099 14.0822 14.9984 13.9457C14.987 13.8092 14.9287 13.6808 14.8334 13.5824C14.778 13.5251 14.7117 13.4796 14.6383 13.4485C14.565 13.4174 14.4861 13.4014 14.4064 13.4014Z" fill="white"/>
<path d="M6.64089 34.4553C6.77703 34.4542 6.90856 34.4059 7.01312 34.3187C7.11767 34.2315 7.18879 34.1108 7.21438 33.977C7.23997 33.8433 7.21844 33.7049 7.15347 33.5852C7.08849 33.4656 6.98407 33.3722 6.85798 33.3208C6.73189 33.2695 6.5919 33.2634 6.46184 33.3036C6.33177 33.3439 6.21966 33.4279 6.14457 33.5415C6.06948 33.655 6.03605 33.7911 6.04996 33.9265C6.06387 34.062 6.12427 34.1884 6.22089 34.2843C6.33276 34.3946 6.48378 34.4561 6.64089 34.4553Z" fill="white"/>
<path d="M2.18359 40.1155C2.18359 40.233 2.21843 40.3478 2.2837 40.4455C2.34897 40.5432 2.44174 40.6193 2.55028 40.6643C2.65882 40.7092 2.77825 40.721 2.89348 40.6981C3.0087 40.6752 3.11454 40.6186 3.19761 40.5355C3.28069 40.4524 3.33726 40.3466 3.36018 40.2314C3.3831 40.1161 3.37134 39.9967 3.32638 39.8882C3.28142 39.7796 3.20528 39.6869 3.1076 39.6216C3.00992 39.5563 2.89508 39.5215 2.77759 39.5215C2.62006 39.5215 2.46897 39.5841 2.35757 39.6955C2.24618 39.8069 2.18359 39.9579 2.18359 40.1155Z" fill="white"/>
<path d="M3.95753 9.40918C3.95753 9.2917 3.92269 9.17686 3.85742 9.07918C3.79216 8.9815 3.69938 8.90536 3.59085 8.8604C3.48231 8.81544 3.36287 8.80368 3.24765 8.8266C3.13242 8.84952 3.02658 8.90609 2.94351 8.98916C2.86044 9.07224 2.80386 9.17808 2.78095 9.2933C2.75803 9.40853 2.76979 9.52796 2.81475 9.6365C2.85971 9.74504 2.93584 9.83781 3.03352 9.90308C3.13121 9.96835 3.24605 10.0032 3.36353 10.0032C3.52107 10.0032 3.67216 9.9406 3.78355 9.8292C3.89495 9.71781 3.95753 9.56672 3.95753 9.40918Z" fill="white"/>
<path d="M3.14453 36.6045C3.14453 36.7371 3.19721 36.8643 3.29098 36.958C3.38475 37.0518 3.51192 37.1045 3.64453 37.1045C7.03782 37.152 10.3602 38.0826 13.2845 39.8045C13.3954 39.8481 13.5182 39.8507 13.6309 39.8118C13.7435 39.7729 13.8385 39.695 13.8988 39.5923C13.9591 39.4895 13.9808 39.3686 13.9598 39.2513C13.9388 39.134 13.8767 39.028 13.7845 38.9525C10.7072 37.1392 7.211 36.1577 3.63953 36.1045C3.50779 36.1058 3.3819 36.1591 3.28921 36.2527C3.19652 36.3463 3.14452 36.4727 3.14453 36.6045Z" fill="white"/>
<path d="M54.1502 36.6045C54.1502 36.4719 54.0975 36.3447 54.0037 36.2509C53.9099 36.1572 53.7828 36.1045 53.6502 36.1045C52.96 36.107 52.2706 36.1484 51.5852 36.2285C51.5146 36.2242 51.4439 36.2349 51.3777 36.2599C51.3115 36.285 51.2515 36.3238 51.2014 36.3737C51.1513 36.4237 51.1125 36.4838 51.0873 36.5499C51.0622 36.616 51.0514 36.6867 51.0556 36.7573C51.0598 36.8279 51.0789 36.8968 51.1117 36.9595C51.1445 37.0221 51.1902 37.0771 51.2459 37.1208C51.3015 37.1645 51.3658 37.1959 51.4344 37.2129C51.5031 37.2299 51.5746 37.2321 51.6442 37.2195H51.6982C52.3456 37.1411 52.997 37.1014 53.6492 37.1005C53.7818 37.1005 53.9089 37.0478 54.0027 36.954C54.0965 36.8603 54.1492 36.7331 54.1492 36.6005L54.1502 36.6045Z" fill="white"/>
<path d="M48.1229 37.3537C48.1095 37.3109 48.0878 37.2712 48.0589 37.2369C48.0301 37.2025 47.9947 37.1743 47.9549 37.1537C47.9155 37.1335 47.8725 37.1213 47.8283 37.1181C47.7842 37.1148 47.7398 37.1205 47.6979 37.1347C44.1579 38.3347 40.5879 41.1737 40.5879 44.8227C40.5879 44.9116 40.6232 44.9968 40.686 45.0596C40.7488 45.1224 40.834 45.1577 40.9229 45.1577C41.0117 45.1577 41.0969 45.1224 41.1598 45.0596C41.2226 44.9968 41.2579 44.9116 41.2579 44.8227C41.2579 41.5147 44.6069 38.8997 47.9089 37.7807C47.9934 37.7517 48.0631 37.6908 48.1031 37.6109C48.1432 37.5311 48.1502 37.4387 48.1229 37.3537Z" fill="white"/>
<path d="M6.70942 28.5218C6.64435 28.5124 6.57806 28.5158 6.51432 28.532C6.45059 28.5481 6.39066 28.5767 6.33797 28.616C6.23154 28.6954 6.16102 28.8139 6.14192 28.9453C6.12283 29.0767 6.15672 29.2103 6.23614 29.3168C6.31556 29.4232 6.43401 29.4937 6.56542 29.5128C11.0383 30.1752 15.1254 32.4193 18.0851 35.8376C21.0448 39.256 22.6809 43.6222 22.6964 48.1438C22.6869 48.2145 22.6926 48.2864 22.7131 48.3547C22.7336 48.423 22.7685 48.4861 22.8155 48.5398C22.8624 48.5935 22.9203 48.6365 22.9852 48.666C23.0501 48.6955 23.1206 48.7107 23.1919 48.7107C23.2632 48.7107 23.3337 48.6955 23.3987 48.666C23.4636 48.6365 23.5215 48.5935 23.5684 48.5398C23.6153 48.4861 23.6502 48.423 23.6708 48.3547C23.6913 48.2864 23.697 48.2145 23.6874 48.1438C23.6746 43.3825 21.9541 38.7837 18.8387 35.1831C15.7232 31.5824 11.4195 29.2189 6.70942 28.5218Z" fill="white"/>
<path d="M33.6094 48.1294C33.6256 48.2493 33.6847 48.3593 33.7758 48.4389C33.867 48.5185 33.9839 48.5624 34.1049 48.5624C34.2259 48.5624 34.3428 48.5185 34.4339 48.4389C34.525 48.3593 34.5842 48.2493 34.6004 48.1294C34.6004 43.138 36.5832 38.351 40.1126 34.8216C43.6421 31.2922 48.429 29.3094 53.4204 29.3094C53.5403 29.2932 53.6503 29.234 53.7299 29.1429C53.8095 29.0518 53.8534 28.9349 53.8534 28.8139C53.8534 28.6929 53.8095 28.5759 53.7299 28.4848C53.6503 28.3937 53.5403 28.3346 53.4204 28.3184C48.1662 28.3184 43.1272 30.4056 39.4119 34.1209C35.6966 37.8362 33.6094 42.8752 33.6094 48.1294Z" fill="white"/>
<path d="M31.043 43.0796C31.043 43.199 31.0904 43.3134 31.1748 43.3978C31.2592 43.4822 31.3736 43.5296 31.493 43.5296C31.6123 43.5296 31.7268 43.4822 31.8112 43.3978C31.8956 43.3134 31.943 43.199 31.943 43.0796C31.943 33.6136 36.793 25.0736 44.033 21.8306C44.082 21.8098 44.1262 21.779 44.1627 21.7402C44.1992 21.7014 44.2272 21.6555 44.245 21.6052C44.2628 21.555 44.2699 21.5016 44.266 21.4485C44.262 21.3954 44.247 21.3437 44.222 21.2966C44.1629 21.1999 44.0709 21.1278 43.9629 21.0934C43.8548 21.0591 43.7381 21.0648 43.634 21.1096C36.09 24.4846 31.043 33.3146 31.043 43.0796Z" fill="white"/>
<path d="M11.4825 20.6465C11.4606 20.7025 11.4508 20.7625 11.4536 20.8225C11.4564 20.8826 11.4719 20.9414 11.499 20.9951C11.5261 21.0488 11.5641 21.0961 11.6108 21.1341C11.6574 21.1721 11.7115 21.1998 11.7695 21.2155C20.5405 24.1665 26.6625 33.9835 26.6625 45.0915C26.6787 45.2114 26.7378 45.3214 26.829 45.4011C26.9201 45.4807 27.037 45.5246 27.158 45.5246C27.279 45.5246 27.3959 45.4807 27.487 45.4011C27.5782 45.3214 27.6373 45.2114 27.6535 45.0915C27.6535 33.6205 21.2695 23.4735 12.1215 20.3855C11.9974 20.3443 11.8627 20.3486 11.7415 20.3975C11.684 20.4198 11.6315 20.4533 11.587 20.496C11.5426 20.5388 11.507 20.5899 11.4825 20.6465Z" fill="white"/>
<path d="M28.6459 24.2813C28.7785 24.2813 28.9057 24.2286 28.9994 24.1348C29.0932 24.041 29.1459 23.9139 29.1459 23.7813V12.5533C29.1554 12.4826 29.1498 12.4107 29.1292 12.3424C29.1087 12.2741 29.0738 12.211 29.0269 12.1573C28.9799 12.1036 28.9221 12.0606 28.8571 12.0311C28.7922 12.0016 28.7217 11.9863 28.6504 11.9863C28.5791 11.9863 28.5086 12.0016 28.4437 12.0311C28.3787 12.0606 28.3208 12.1036 28.2739 12.1573C28.227 12.211 28.1921 12.2741 28.1716 12.3424C28.151 12.4107 28.1453 12.4826 28.1549 12.5533V23.7863C28.1562 23.9165 28.2082 24.041 28.2999 24.1335C28.3916 24.2259 28.5157 24.2789 28.6459 24.2813Z" fill="white"/>
<path d="M28.149 29.3683C28.1652 29.4882 28.2244 29.5982 28.3155 29.6779C28.4066 29.7575 28.5235 29.8014 28.6445 29.8014C28.7655 29.8014 28.8825 29.7575 28.9736 29.6779C29.0647 29.5982 29.1238 29.4882 29.14 29.3683V26.5503C29.1496 26.4797 29.1439 26.4078 29.1234 26.3395C29.1028 26.2712 29.0679 26.2081 29.021 26.1544C28.9741 26.1007 28.9162 26.0576 28.8513 26.0281C28.7863 25.9987 28.7158 25.9834 28.6445 25.9834C28.5732 25.9834 28.5027 25.9987 28.4378 26.0281C28.3729 26.0576 28.315 26.1007 28.2681 26.1544C28.2211 26.2081 28.1862 26.2712 28.1657 26.3395C28.1452 26.4078 28.1395 26.4797 28.149 26.5503V29.3683Z" fill="white"/>
<path d="M20.5526 15.9265C20.6115 15.9257 20.6699 15.9156 20.7256 15.8965C20.8473 15.8497 20.946 15.7573 21.0006 15.6389C21.0551 15.5204 21.0612 15.3854 21.0176 15.2625L19.7306 11.7965C19.6745 11.6886 19.581 11.605 19.4676 11.5611C19.3543 11.5172 19.2288 11.5161 19.1147 11.558C19.0006 11.5999 18.9057 11.682 18.8477 11.7888C18.7897 11.8956 18.7726 12.0199 18.7996 12.1385L20.0876 15.6075C20.124 15.7013 20.1879 15.7819 20.2709 15.8388C20.3538 15.8957 20.452 15.9263 20.5526 15.9265Z" fill="white"/>
<path d="M21.6189 18.3133C21.4957 18.3584 21.3952 18.4502 21.3391 18.5688C21.2829 18.6874 21.2757 18.8234 21.3189 18.9473L24.4189 27.3273C24.4541 27.4227 24.5175 27.5051 24.6008 27.5636C24.6841 27.622 24.7832 27.6536 24.8849 27.6543C24.9443 27.6541 25.0031 27.6422 25.0579 27.6193C25.1796 27.5725 25.2783 27.4801 25.3328 27.3616C25.3874 27.2432 25.3935 27.1081 25.3499 26.9853L22.2499 18.6053C22.2031 18.4842 22.1112 18.3861 21.9934 18.3316C21.8757 18.2771 21.7414 18.2706 21.6189 18.3133Z" fill="white"/>
<path d="M26.5168 30.1565C26.501 30.0872 26.4706 30.0221 26.4277 29.9655C26.3848 29.9088 26.3303 29.862 26.2678 29.8281C26.2054 29.7943 26.1364 29.7741 26.0656 29.7689C25.9947 29.7637 25.9236 29.7737 25.8569 29.7982C25.7902 29.8227 25.7295 29.8612 25.6788 29.911C25.6282 29.9608 25.5887 30.0208 25.563 30.0871C25.5374 30.1533 25.5261 30.2243 25.5301 30.2952C25.534 30.3661 25.553 30.4354 25.5858 30.4985L26.9468 34.1674C26.9959 34.2851 27.0886 34.3791 27.2054 34.43C27.3222 34.4809 27.4542 34.4847 27.5738 34.4405C27.6933 34.3963 27.7912 34.3077 27.8469 34.1931C27.9026 34.0785 27.9119 33.9467 27.8728 33.8255L26.5168 30.1565Z" fill="white"/>
<path d="M37.385 13.6936C37.4463 13.7158 37.5114 13.7257 37.5766 13.7226C37.6417 13.7195 37.7056 13.7036 37.7645 13.6757C37.8234 13.6478 37.8763 13.6085 37.92 13.5601C37.9636 13.5117 37.9973 13.4551 38.019 13.3936L38.519 12.1156C38.5518 12.0526 38.5708 11.9833 38.5748 11.9124C38.5787 11.8415 38.5674 11.7705 38.5418 11.7042C38.5161 11.638 38.4767 11.578 38.426 11.5282C38.3753 11.4784 38.3146 11.4399 38.2479 11.4154C38.1812 11.3909 38.1101 11.3809 38.0392 11.3861C37.9684 11.3912 37.8994 11.4114 37.837 11.4453C37.7745 11.4792 37.72 11.526 37.6771 11.5827C37.6342 11.6393 37.6038 11.7044 37.588 11.7736L37.088 13.0516C37.0433 13.1762 37.0498 13.3134 37.106 13.4331C37.1622 13.5529 37.2636 13.6455 37.388 13.6906L37.385 13.6936Z" fill="white"/>
<path d="M36.3023 15.1945L33.4643 22.8855C33.4207 23.0084 33.4269 23.1435 33.4814 23.2619C33.5359 23.3804 33.6346 23.4728 33.7563 23.5195C33.811 23.543 33.8699 23.5549 33.9293 23.5545C34.0311 23.5539 34.1302 23.5223 34.2134 23.4638C34.2967 23.4054 34.3601 23.323 34.3953 23.2275L37.2333 15.5365C37.2661 15.4735 37.2851 15.4042 37.2891 15.3333C37.293 15.2624 37.2818 15.1914 37.2561 15.1251C37.2305 15.0589 37.191 14.9989 37.1403 14.9491C37.0896 14.8993 37.0289 14.8608 36.9622 14.8363C36.8956 14.8118 36.8244 14.8018 36.7535 14.807C36.6827 14.8121 36.6137 14.8323 36.5513 14.8662C36.4889 14.9001 36.4344 14.9469 36.3914 15.0035C36.3485 15.0602 36.3181 15.1253 36.3023 15.1945Z" fill="white"/>
<path d="M30.9177 31.7102C31.0194 31.7096 31.1185 31.6779 31.2017 31.6195C31.285 31.5611 31.3485 31.4787 31.3837 31.3832L33.2837 26.2222C33.2994 26.1078 33.2749 25.9915 33.2146 25.893C33.1542 25.7945 33.0616 25.72 32.9525 25.682C32.8434 25.6441 32.7246 25.6451 32.6161 25.6849C32.5077 25.7247 32.4164 25.8007 32.3577 25.9002L30.4507 31.0412C30.4071 31.1641 30.4132 31.2992 30.4677 31.4176C30.5223 31.536 30.6209 31.6285 30.7427 31.6752C30.7979 31.699 30.8575 31.7109 30.9177 31.7102Z" fill="white"/>
<path d="M22.6789 7.47722C22.7015 7.57451 22.7527 7.66281 22.826 7.73071C22.8992 7.79862 22.9912 7.84303 23.0899 7.85822L25.9229 8.28922L25.7149 11.1522C25.7106 11.2499 25.7349 11.3467 25.785 11.4306C25.8351 11.5145 25.9087 11.582 25.9967 11.6245C26.0847 11.6671 26.1832 11.6829 26.2801 11.6701C26.377 11.6572 26.468 11.6162 26.5419 11.5522L28.6519 9.60622L30.7519 11.5422C30.8253 11.6108 30.9178 11.6553 31.0172 11.6698C31.1166 11.6844 31.218 11.6682 31.3079 11.6235C31.3979 11.5788 31.472 11.5077 31.5204 11.4198C31.5688 11.3318 31.5892 11.2311 31.5789 11.1312L31.3709 8.26822L34.2089 7.83722C34.3058 7.81968 34.3953 7.77393 34.4663 7.7057C34.5373 7.63747 34.5866 7.5498 34.608 7.45368C34.6293 7.35756 34.6218 7.25727 34.5864 7.16539C34.551 7.07351 34.4892 6.99414 34.4089 6.93722L32.0419 5.31722L33.4729 2.84122C33.5162 2.75515 33.5337 2.65839 33.5233 2.56259C33.513 2.4668 33.4751 2.37604 33.4144 2.30125C33.3536 2.22645 33.2726 2.1708 33.1809 2.14099C33.0893 2.11118 32.991 2.10848 32.8979 2.13322L30.1539 2.97522L29.1119 0.305219C29.0736 0.214725 29.0095 0.137515 28.9276 0.0832319C28.8457 0.028949 28.7496 0 28.6514 0C28.5531 0 28.4571 0.028949 28.3752 0.0832319C28.2933 0.137515 28.2292 0.214725 28.1909 0.305219L27.1359 2.97022L24.3949 2.12822C24.3005 2.10187 24.2004 2.10385 24.1071 2.1339C24.0139 2.16396 23.9315 2.22076 23.8702 2.29727C23.8089 2.37377 23.7715 2.46658 23.7626 2.56418C23.7536 2.66178 23.7736 2.75986 23.8199 2.84622L25.2509 5.32222L22.8839 6.94222C22.799 6.99964 22.7338 7.08175 22.6972 7.17745C22.6605 7.27314 22.6541 7.37778 22.6789 7.47722ZM26.1849 5.89722C26.2864 5.82606 26.3578 5.71975 26.3853 5.59891C26.4129 5.47807 26.3945 5.35131 26.3339 5.24322L25.3039 3.44322L27.2849 4.05222C27.4033 4.08597 27.53 4.07483 27.6407 4.02095C27.7514 3.96707 27.8384 3.87423 27.8849 3.76022L28.6479 1.83322L29.4059 3.76022C29.4524 3.87423 29.5393 3.96707 29.6501 4.02095C29.7608 4.07483 29.8875 4.08597 30.0059 4.05222L31.9869 3.44322L30.9569 5.24322C30.8963 5.35131 30.8779 5.47807 30.9055 5.59891C30.933 5.71975 31.0044 5.82606 31.1059 5.89722L32.8149 7.08122L30.7699 7.39322C30.6461 7.4127 30.534 7.47799 30.4561 7.57615C30.3781 7.67431 30.3398 7.79818 30.3489 7.92322L30.5029 9.98822L28.9829 8.56722C28.8918 8.48121 28.7712 8.43331 28.6459 8.43331C28.5206 8.43331 28.4 8.48121 28.3089 8.56722L26.7949 9.97322L26.9439 7.90822C26.9529 7.78318 26.9147 7.65931 26.8367 7.56115C26.7587 7.46299 26.6467 7.3977 26.5229 7.37822L24.4779 7.07822L26.1849 5.89722Z" fill="#EA3A51"/>
<path d="M42.5475 19.4327C42.5611 19.5311 42.6036 19.6231 42.6697 19.6972C42.7357 19.7713 42.8224 19.824 42.9185 19.8487L45.7065 20.5277L45.2455 23.3607C45.2308 23.4584 45.2458 23.5582 45.2885 23.6472C45.3312 23.7362 45.3997 23.8104 45.485 23.8601C45.5704 23.9097 45.6687 23.9326 45.7672 23.9258C45.8657 23.919 45.9598 23.8827 46.0375 23.8217L48.3055 22.0687L50.2325 24.1937C50.3004 24.2651 50.3878 24.3148 50.4838 24.3367C50.5798 24.3585 50.6801 24.3516 50.7722 24.3166C50.8642 24.2817 50.9439 24.2204 51.0013 24.1404C51.0586 24.0603 51.091 23.9651 51.0945 23.8667L51.1395 20.9987L54.0025 20.8207C54.1004 20.812 54.1936 20.7747 54.2704 20.7133C54.3472 20.652 54.4042 20.5693 54.4343 20.4757C54.4644 20.3822 54.4663 20.2818 54.4396 20.1871C54.413 20.0925 54.359 20.0079 54.2845 19.9437L52.0705 18.1207L53.7095 15.7677C53.763 15.6865 53.7916 15.5914 53.7918 15.4941C53.792 15.3968 53.7639 15.3016 53.7108 15.2201C53.6578 15.1386 53.5821 15.0743 53.493 15.0352C53.404 14.996 53.3055 14.9837 53.2095 14.9997L50.4015 15.5937L49.5895 12.8447C49.5595 12.7514 49.5027 12.6691 49.4262 12.6078C49.3497 12.5465 49.2569 12.5091 49.1593 12.5001C49.0617 12.4912 48.9636 12.5111 48.8772 12.5574C48.7909 12.6038 48.72 12.6745 48.6735 12.7607L47.3915 15.3267L44.7325 14.2467C44.638 14.2004 44.5313 14.1851 44.4277 14.2029C44.324 14.2208 44.2285 14.2709 44.155 14.3461C44.0814 14.4213 44.0334 14.5179 44.0179 14.6219C44.0024 14.726 44.0201 14.8323 44.0685 14.9257L45.2685 17.5257L42.7925 18.9327C42.7067 18.9824 42.6376 19.0564 42.594 19.1455C42.5504 19.2345 42.5342 19.3345 42.5475 19.4327ZM46.1775 18.1697C46.2866 18.108 46.3685 18.0075 46.407 17.8883C46.4455 17.769 46.4379 17.6396 46.3855 17.5257L45.5135 15.6487L47.4355 16.4267C47.5512 16.4724 47.6797 16.4733 47.796 16.4293C47.9123 16.3853 48.008 16.2995 48.0645 16.1887L48.9905 14.3367L49.5795 16.3177C49.6152 16.4366 49.6938 16.538 49.8001 16.6021C49.9064 16.6663 50.0327 16.6886 50.1545 16.6647L52.1805 16.2337L51.0065 17.9337C50.9365 18.0358 50.9069 18.1602 50.9234 18.2828C50.9398 18.4055 51.0011 18.5177 51.0955 18.5977L52.6955 19.9147L50.6325 20.0467C50.5059 20.0554 50.3873 20.1118 50.3007 20.2047C50.2142 20.2975 50.1662 20.4198 50.1665 20.5467L50.1365 22.6167L48.7445 21.0817C48.6612 20.989 48.5458 20.9313 48.4216 20.9203C48.2975 20.9094 48.1737 20.946 48.0755 21.0227L46.4325 22.2847L46.7645 20.2397C46.7832 20.117 46.7556 19.9917 46.6871 19.8881C46.6185 19.7846 46.5138 19.7103 46.3935 19.6797L44.3825 19.1797L46.1775 18.1697Z" fill="#EA3A51"/>
<path d="M0.984907 19.1603C1.01295 19.256 1.06898 19.3412 1.14578 19.4048C1.22258 19.4684 1.31665 19.5076 1.41591 19.5173L4.26891 19.7943L4.21891 22.6623C4.21739 22.7609 4.24505 22.8578 4.29843 22.9407C4.35181 23.0236 4.42852 23.0889 4.51891 23.1283C4.58024 23.1534 4.64566 23.1669 4.71191 23.1683C4.84434 23.1672 4.97094 23.1137 5.06391 23.0193L7.04491 20.9593L9.25891 22.7873C9.33542 22.8496 9.42884 22.8874 9.5271 22.896C9.62536 22.9046 9.72393 22.8835 9.81008 22.8355C9.89623 22.7875 9.966 22.7147 10.0104 22.6266C10.0547 22.5385 10.0716 22.4391 10.0589 22.3413L9.69891 19.4973L12.4989 18.9083C12.5943 18.8859 12.681 18.836 12.7482 18.7647C12.8154 18.6934 12.8602 18.604 12.8771 18.5075C12.8939 18.411 12.882 18.3117 12.8429 18.2218C12.8037 18.132 12.7391 18.0557 12.6569 18.0023L10.2049 16.5163L11.4989 13.9553C11.5413 13.8664 11.5565 13.767 11.5426 13.6694C11.5286 13.5719 11.4862 13.4807 11.4206 13.4072C11.355 13.3337 11.2692 13.2812 11.1739 13.2563C11.0786 13.2315 10.9781 13.2353 10.8849 13.2673L8.19591 14.2583L7.02691 11.6483C6.98396 11.5596 6.91576 11.4856 6.83087 11.4355C6.74598 11.3855 6.64818 11.3616 6.54977 11.3669C6.45137 11.3723 6.35673 11.4066 6.27776 11.4656C6.19879 11.5245 6.139 11.6055 6.10591 11.6983L5.20591 14.4223L2.42291 13.7343C2.32663 13.7088 2.22485 13.7135 2.1313 13.7477C2.03775 13.7818 1.95691 13.8438 1.8997 13.9253C1.84248 14.0069 1.81164 14.104 1.81132 14.2036C1.811 14.3031 1.84122 14.4004 1.89791 14.4823L3.46291 16.8893L1.18991 18.6373C1.10728 18.6939 1.04357 18.7741 1.00702 18.8673C0.970466 18.9606 0.962764 19.0626 0.984907 19.1603ZM4.39891 17.3923C4.49644 17.3151 4.56166 17.2042 4.58182 17.0814C4.60197 16.9586 4.57562 16.8327 4.50791 16.7283L3.39891 15.0053L5.40991 15.5053C5.53182 15.5338 5.65997 15.5154 5.76903 15.454C5.87809 15.3925 5.96012 15.2924 5.99891 15.1733L6.65291 13.1923L7.51991 15.0743C7.57278 15.1864 7.66537 15.2748 7.77974 15.3225C7.89411 15.3702 8.0221 15.3737 8.13891 15.3323L10.0849 14.6143L9.15391 16.4913C9.09939 16.6023 9.08791 16.7295 9.12171 16.8485C9.15551 16.9674 9.23217 17.0696 9.33691 17.1353L11.0989 18.2093L9.07291 18.6353C8.95174 18.6627 8.8451 18.7342 8.77375 18.8358C8.70239 18.9375 8.67144 19.0621 8.68691 19.1853L8.94891 21.2353L7.35891 19.9183C7.26249 19.8389 7.13985 19.7985 7.01511 19.805C6.89038 19.8114 6.77258 19.8644 6.68491 19.9533L5.24391 21.4433L5.28391 19.3733C5.28451 19.2488 5.23861 19.1285 5.15519 19.036C5.07177 18.9436 4.95685 18.8855 4.83291 18.8733L2.77291 18.6733L4.39891 17.3923Z" fill="#EA3A51"/>
</svg>
