<svg width="25" height="16" viewBox="0 0 25 16" fill="none" xmlns="http://www.w3.org/2000/svg">
<path d="M22.592 0H1.829C1.34478 -1.80934e-06 0.880327 0.192012 0.537466 0.533936C0.194606 0.875859 0.00132372 1.33978 0 1.824V5.324H24.421V1.824C24.4197 1.33978 24.2264 0.875859 23.8835 0.533936C23.5407 0.192012 23.0762 -1.80934e-06 22.592 0V0Z" fill="#FF9933"/>
<path d="M0 14.171C0 14.6561 0.192698 15.1213 0.535702 15.4643C0.878706 15.8073 1.34392 16 1.829 16H22.592C23.0771 16 23.5423 15.8073 23.8853 15.4643C24.2283 15.1213 24.421 14.6561 24.421 14.171V10.671H0V14.171Z" fill="#138808"/>
<path d="M24.421 5.33301H0V10.666H24.421V5.33301Z" fill="#F5F5F5"/>
<path d="M12.2103 10.2631C11.7627 10.2631 11.3252 10.1303 10.953 9.88167C10.5809 9.63301 10.2908 9.27958 10.1195 8.86607C9.94824 8.45256 9.90343 7.99754 9.99075 7.55856C10.0781 7.11958 10.2936 6.71636 10.6101 6.39987C10.9266 6.08338 11.3298 5.86787 11.7688 5.78055C12.2077 5.69323 12.6628 5.73803 13.0763 5.90932C13.4898 6.0806 13.8432 6.37065 14.0919 6.7428C14.3405 7.11494 14.4733 7.55248 14.4733 8.00006C14.4725 8.6 14.2338 9.17514 13.8096 9.59936C13.3853 10.0236 12.8102 10.2623 12.2103 10.2631ZM12.2103 6.15806C11.846 6.15806 11.4898 6.26609 11.1869 6.46849C10.884 6.67089 10.6479 6.95857 10.5085 7.29515C10.3691 7.63173 10.3326 8.00211 10.4037 8.35942C10.4747 8.71673 10.6502 9.04494 10.9078 9.30255C11.1654 9.56016 11.4936 9.7356 11.8509 9.80667C12.2082 9.87774 12.5786 9.84126 12.9152 9.70184C13.2517 9.56243 13.5394 9.32634 13.7418 9.02342C13.9442 8.72051 14.0523 8.36437 14.0523 8.00006C14.0517 7.51169 13.8575 7.04348 13.5122 6.69815C13.1668 6.35282 12.6986 6.15859 12.2103 6.15806V6.15806Z" fill="#000080"/>
<path d="M12.2112 8.25802C12.3532 8.25802 12.4682 8.14296 12.4682 8.00102C12.4682 7.85908 12.3532 7.74402 12.2112 7.74402C12.0693 7.74402 11.9542 7.85908 11.9542 8.00102C11.9542 8.14296 12.0693 8.25802 12.2112 8.25802Z" fill="#000080"/>
<path d="M12.2113 8.03911L11.5593 8.10512L10.1593 8.03911V7.96211L11.5593 7.89612L12.2113 7.96211V8.03911Z" fill="#000080"/>
<path d="M12.21 8.03899L12.862 8.105L14.262 8.03899V7.96199L12.862 7.896L12.21 7.96199V8.03899Z" fill="#000080"/>
<path d="M12.1723 8.0011L12.1063 7.34911L12.1723 5.9491H12.2493L12.3153 7.34911L12.2493 8.0011H12.1723Z" fill="#000080"/>
<path d="M12.1723 8L12.1063 8.65201L12.1723 10.052H12.2493L12.3153 8.65201L12.2493 8H12.1723Z" fill="#000080"/>
<path d="M12.1833 8.02809L11.6753 7.61409L10.7323 6.5761L10.7863 6.52209L11.8233 7.46609L12.2373 7.97409L12.1833 8.02809Z" fill="#000080"/>
<path d="M12.1836 8.02711L12.5976 8.53513L13.6346 9.47913L13.6886 9.42511L12.7446 8.38812L12.2366 7.97412L12.1836 8.02711Z" fill="#000080"/>
<path d="M12.1836 7.97301L12.5976 7.465L13.6346 6.521L13.6886 6.575L12.7446 7.612L12.2366 8.026L12.1836 7.97301Z" fill="#000080"/>
<path d="M12.1833 7.97302L11.6753 8.38702L10.7323 9.42404L10.7863 9.47803L11.8233 8.53403L12.2373 8.02603L12.1833 7.97302Z" fill="#000080"/>
<path d="M12.2248 8.03618L11.6478 8.34618L10.3288 8.82117L10.2998 8.75018L11.5688 8.15018L12.1968 7.96118L12.2248 8.03618Z" fill="#000080"/>
<path d="M12.2243 8.03603L12.8523 7.84702L14.1213 7.24702L14.0923 7.17603L12.7733 7.65102L12.1963 7.96101L12.2243 8.03603Z" fill="#000080"/>
<path d="M12.1747 8.01508L11.8647 7.43808L11.3896 6.11908L11.4606 6.09009L12.0607 7.35909L12.2496 7.98708L12.1747 8.01508Z" fill="#000080"/>
<path d="M12.1748 8.01408L12.3638 8.64207L12.9638 9.91109L13.0348 9.8821L12.5598 8.5631L12.2498 7.98608L12.1748 8.01408Z" fill="#000080"/>
<path d="M12.1948 8.03603L11.5668 7.84702L10.2979 7.24702L10.3268 7.17603L11.6458 7.65102L12.2228 7.96101L12.1948 8.03603Z" fill="#000080"/>
<path d="M12.1953 8.03606L12.7723 8.34605L14.0913 8.82104L14.1203 8.75006L12.8513 8.15005L12.2233 7.96106L12.1953 8.03606Z" fill="#000080"/>
<path d="M12.1748 7.98512L12.3638 7.35713L12.9638 6.08813L13.0348 6.11713L12.5598 7.43613L12.2498 8.01312L12.1748 7.98512Z" fill="#000080"/>
<path d="M12.1747 7.98511L11.8647 8.56212L11.3896 9.88112L11.4606 9.91011L12.0607 8.6411L12.2496 8.01311L12.1747 7.98511Z" fill="#000080"/>
<path d="M12.2103 8.34605C12.4013 8.34605 12.5563 8.19114 12.5563 8.00005C12.5563 7.80896 12.4013 7.65405 12.2103 7.65405C12.0192 7.65405 11.8643 7.80896 11.8643 8.00005C11.8643 8.19114 12.0192 8.34605 12.2103 8.34605Z" fill="#F5F5F5"/>
<path d="M12.2111 8.20799C12.3259 8.20799 12.4191 8.11487 12.4191 7.99999C12.4191 7.88512 12.3259 7.79199 12.2111 7.79199C12.0962 7.79199 12.0031 7.88512 12.0031 7.99999C12.0031 8.11487 12.0962 8.20799 12.2111 8.20799Z" fill="#000080"/>
</svg>
