<svg width="102" height="12" viewBox="0 0 102 12" fill="none" xmlns="http://www.w3.org/2000/svg">
<g clip-path="url(#clip0_18_1956)">
<path fill-rule="evenodd" clip-rule="evenodd" d="M21.8443 3.19094H28.7855C30.3604 3.19094 31.6436 4.38054 31.6436 5.83606V11.896H21.2756C20.3132 11.896 19.5258 11.1683 19.5258 10.2866C19.5258 9.58681 19.5258 8.88704 19.5258 8.17328C19.5258 7.34756 20.2549 6.67578 21.1444 6.67578H26.9044L26.2919 7.90737H22.0631C21.8735 7.90737 21.6693 8.04732 21.6693 8.22926C21.6693 8.77508 21.6693 9.3349 21.6693 9.88072C21.6693 10.0767 21.8735 10.2026 22.0631 10.2026H29.4125V6.22793C29.4125 5.45818 28.698 4.87038 27.896 4.87038H21.0131L21.8443 3.19094ZM78.8609 0.0139951V11.896H68.7408C67.7784 11.896 66.991 11.1683 66.991 10.2866C66.991 8.80307 66.991 7.31957 66.991 5.83606C66.991 4.38054 68.2742 3.19094 69.8491 3.19094H75.6091L74.7633 4.88438H70.7386C69.9366 4.88438 69.2221 5.47218 69.2221 6.24192C69.2221 7.45952 69.2221 8.67711 69.2221 9.89471C69.2221 10.0906 69.4262 10.2166 69.6158 10.2166H76.6007V0.0139951H78.8609ZM43.3094 11.896H45.5551C45.5551 9.88071 45.5551 7.85139 45.5551 5.83606C45.5551 4.38054 44.2718 3.19094 42.697 3.19094H37.9431L37.0828 4.87038H41.8074C42.6095 4.87038 43.324 5.45818 43.324 6.22793V11.896H43.3094ZM33.9913 0.0139951V11.896H36.237V0.0139951H33.9913ZM15.3115 11.896H17.5426C17.5426 9.88071 17.5426 7.85139 17.5426 5.83606C17.5426 4.38054 16.2593 3.19094 14.6844 3.19094C10.266 3.19094 4.41854 3.19094 0.00012207 3.19094V11.896H2.24579V5.20627C2.24579 5.01033 2.44994 4.88438 2.63951 4.88438C3.95191 4.88438 5.96426 4.88438 7.27667 4.88438C7.46623 4.88438 7.67039 5.02433 7.67039 5.20627V11.91H9.91605V5.20627C9.91605 5.01033 10.1202 4.88438 10.3098 4.88438C11.243 4.88438 12.8908 4.88438 13.8241 4.88438C14.6261 4.88438 15.3406 5.47218 15.3406 6.24192V11.896H15.3115ZM90.5559 3.19094H84.9271C83.3523 3.19094 82.069 4.38054 82.069 5.83606V11.896H84.3147C84.3147 10.0067 84.3147 8.1173 84.3147 6.22793C84.3147 5.45818 85.0292 4.87038 85.8312 4.87038H89.7101L90.5559 3.19094ZM61.8726 3.19094C63.4475 3.19094 64.7307 4.38054 64.7307 5.83606V11.896H62.4851C62.4851 10.0067 62.4851 8.1173 62.4851 6.22793C62.4851 5.45818 61.7705 4.87038 60.9685 4.87038H55.6022V11.896H53.3566V3.19094C56.2001 3.19094 59.0437 3.19094 61.8726 3.19094ZM48.3403 3.73676L50.5859 2.50517V11.896H48.3403V3.73676ZM50.5859 1.28757V0H48.3403V2.51916L50.5859 1.28757ZM92.1162 3.19094H99.0574C100.632 3.19094 101.915 4.38054 101.915 5.83606V11.896H91.5475C90.5851 11.896 89.7976 11.1683 89.7976 10.2866C89.7976 9.58681 89.7976 8.88704 89.7976 8.17328C89.7976 7.34756 90.5267 6.67578 91.4163 6.67578H97.1762L96.5638 7.90737H92.3349C92.1454 7.90737 91.9412 8.04732 91.9412 8.22926C91.9412 8.77508 91.9412 9.3349 91.9412 9.88072C91.9412 10.0767 92.1454 10.2026 92.3349 10.2026H99.6844V6.22793C99.6844 5.45818 98.9699 4.87038 98.1678 4.87038H91.285L92.1162 3.19094Z" fill="white"/>
</g>
<defs>
<clipPath id="clip0_18_1956">
<rect width="102" height="12" fill="white"/>
</clipPath>
</defs>
</svg>
