<svg width="102" height="12" viewBox="0 0 102 12" fill="none" xmlns="http://www.w3.org/2000/svg">
<g clip-path="url(#clip0_18_1970)">
<path fill-rule="evenodd" clip-rule="evenodd" d="M21.8442 3.19094H28.7854C30.3602 3.19094 31.6435 4.38054 31.6435 5.83606V11.896H21.2755C20.3131 11.896 19.5256 11.1683 19.5256 10.2866C19.5256 9.58681 19.5256 8.88704 19.5256 8.17328C19.5256 7.34756 20.2547 6.67578 21.1443 6.67578H26.9043L26.2918 7.90737H22.0629C21.8734 7.90737 21.6692 8.04732 21.6692 8.22926C21.6692 8.77508 21.6692 9.3349 21.6692 9.88072C21.6692 10.0767 21.8734 10.2026 22.0629 10.2026H29.4124V6.22793C29.4124 5.45818 28.6979 4.87038 27.8958 4.87038H21.013L21.8442 3.19094ZM78.8608 0.0139951V11.896H68.7407C67.7783 11.896 66.9909 11.1683 66.9909 10.2866C66.9909 8.80307 66.9909 7.31957 66.9909 5.83606C66.9909 4.38054 68.2741 3.19094 69.849 3.19094H75.609L74.7632 4.88438H70.7385C69.9365 4.88438 69.2219 5.47218 69.2219 6.24192C69.2219 7.45952 69.2219 8.67711 69.2219 9.89471C69.2219 10.0906 69.4261 10.2166 69.6157 10.2166H76.6006V0.0139951H78.8608ZM43.3093 11.896H45.555C45.555 9.88071 45.555 7.85139 45.555 5.83606C45.555 4.38054 44.2717 3.19094 42.6968 3.19094H37.943L37.0827 4.87038H41.8073C42.6093 4.87038 43.3239 5.45818 43.3239 6.22793V11.896H43.3093ZM33.9912 0.0139951V11.896H36.2369V0.0139951H33.9912ZM15.3114 11.896H17.5424C17.5424 9.88071 17.5424 7.85139 17.5424 5.83606C17.5424 4.38054 16.2592 3.19094 14.6843 3.19094C10.2659 3.19094 4.41842 3.19094 0 3.19094V11.896H2.24567V5.20627C2.24567 5.01033 2.44982 4.88438 2.63939 4.88438C3.95179 4.88438 5.96414 4.88438 7.27654 4.88438C7.46611 4.88438 7.67026 5.02433 7.67026 5.20627V11.91H9.91593V5.20627C9.91593 5.01033 10.1201 4.88438 10.3097 4.88438C11.2429 4.88438 12.8907 4.88438 13.824 4.88438C14.626 4.88438 15.3405 5.47218 15.3405 6.24192V11.896H15.3114ZM90.5558 3.19094H84.927C83.3521 3.19094 82.0689 4.38054 82.0689 5.83606V11.896H84.3146C84.3146 10.0067 84.3146 8.1173 84.3146 6.22793C84.3146 5.45818 85.0291 4.87038 85.8311 4.87038H89.71L90.5558 3.19094ZM61.8725 3.19094C63.4474 3.19094 64.7306 4.38054 64.7306 5.83606V11.896H62.4849C62.4849 10.0067 62.4849 8.1173 62.4849 6.22793C62.4849 5.45818 61.7704 4.87038 60.9684 4.87038H55.6021V11.896H53.3565V3.19094C56.2 3.19094 59.0435 3.19094 61.8725 3.19094ZM48.3402 3.73676L50.5858 2.50517V11.896H48.3402V3.73676ZM50.5858 1.28757V0H48.3402V2.51916L50.5858 1.28757ZM92.1161 3.19094H99.0572C100.632 3.19094 101.915 4.38054 101.915 5.83606V11.896H91.5474C90.5849 11.896 89.7975 11.1683 89.7975 10.2866C89.7975 9.58681 89.7975 8.88704 89.7975 8.17328C89.7975 7.34756 90.5266 6.67578 91.4161 6.67578H97.1761L96.5637 7.90737H92.3348C92.1452 7.90737 91.9411 8.04732 91.9411 8.22926C91.9411 8.77508 91.9411 9.3349 91.9411 9.88072C91.9411 10.0767 92.1452 10.2026 92.3348 10.2026H99.6843V6.22793C99.6843 5.45818 98.9697 4.87038 98.1677 4.87038H91.2849L92.1161 3.19094Z" fill="white"/>
</g>
<defs>
<clipPath id="clip0_18_1970">
<rect width="102" height="12" fill="white"/>
</clipPath>
</defs>
</svg>
