<svg width="103" height="12" viewBox="0 0 103 12" fill="none" xmlns="http://www.w3.org/2000/svg">
<g clip-path="url(#clip0_29_941)">
<path fill-rule="evenodd" clip-rule="evenodd" d="M21.8668 3.19094H28.8079C30.3828 3.19094 31.6661 4.38054 31.6661 5.83606V11.896H21.2981C20.3357 11.896 19.5482 11.1683 19.5482 10.2866C19.5482 9.58681 19.5482 8.88704 19.5482 8.17328C19.5482 7.34756 20.2773 6.67578 21.1668 6.67578H26.9268L26.3144 7.90737H22.0855C21.896 7.90737 21.6918 8.04732 21.6918 8.22926C21.6918 8.77508 21.6918 9.3349 21.6918 9.88072C21.6918 10.0767 21.896 10.2026 22.0855 10.2026H29.435V6.22793C29.435 5.45818 28.7205 4.87038 27.9184 4.87038H21.0356L21.8668 3.19094ZM78.8834 0.0139951V11.896H68.7633C67.8009 11.896 67.0134 11.1683 67.0134 10.2866C67.0134 8.80307 67.0134 7.31957 67.0134 5.83606C67.0134 4.38054 68.2967 3.19094 69.8716 3.19094H75.6316L74.7858 4.88438H70.7611C69.9591 4.88438 69.2445 5.47218 69.2445 6.24192C69.2445 7.45952 69.2445 8.67711 69.2445 9.89471C69.2445 10.0906 69.4487 10.2166 69.6382 10.2166H76.6231V0.0139951H78.8834ZM43.3319 11.896H45.5775C45.5775 9.88071 45.5775 7.85139 45.5775 5.83606C45.5775 4.38054 44.2943 3.19094 42.7194 3.19094H37.9656L37.1052 4.87038H41.8299C42.6319 4.87038 43.3464 5.45818 43.3464 6.22793V11.896H43.3319ZM34.0138 0.0139951V11.896H36.2595V0.0139951H34.0138ZM15.3339 11.896H17.565C17.565 9.88071 17.565 7.85139 17.565 5.83606C17.565 4.38054 16.2818 3.19094 14.7069 3.19094C10.2885 3.19094 4.441 3.19094 0.022583 3.19094V11.896H2.26825V5.20627C2.26825 5.01033 2.4724 4.88438 2.66197 4.88438C3.97437 4.88438 5.98672 4.88438 7.29913 4.88438C7.4887 4.88438 7.69285 5.02433 7.69285 5.20627V11.91H9.93851V5.20627C9.93851 5.01033 10.1427 4.88438 10.3322 4.88438C11.2655 4.88438 12.9133 4.88438 13.8466 4.88438C14.6486 4.88438 15.3631 5.47218 15.3631 6.24192V11.896H15.3339ZM90.5784 3.19094H84.9496C83.3747 3.19094 82.0915 4.38054 82.0915 5.83606V11.896H84.3372C84.3372 10.0067 84.3372 8.1173 84.3372 6.22793C84.3372 5.45818 85.0517 4.87038 85.8537 4.87038H89.7326L90.5784 3.19094ZM61.8951 3.19094C63.47 3.19094 64.7532 4.38054 64.7532 5.83606V11.896H62.5075C62.5075 10.0067 62.5075 8.1173 62.5075 6.22793C62.5075 5.45818 61.793 4.87038 60.991 4.87038H55.6247V11.896H53.379V3.19094C56.2226 3.19094 59.0661 3.19094 61.8951 3.19094ZM48.3627 3.73676L50.6084 2.50517V11.896H48.3627V3.73676ZM50.6084 1.28757V0H48.3627V2.51916L50.6084 1.28757ZM92.1387 3.19094H99.0798C100.655 3.19094 101.938 4.38054 101.938 5.83606V11.896H91.57C90.6075 11.896 89.8201 11.1683 89.8201 10.2866C89.8201 9.58681 89.8201 8.88704 89.8201 8.17328C89.8201 7.34756 90.5492 6.67578 91.4387 6.67578H97.1987L96.5863 7.90737H92.3574C92.1678 7.90737 91.9637 8.04732 91.9637 8.22926C91.9637 8.77508 91.9637 9.3349 91.9637 9.88072C91.9637 10.0767 92.1678 10.2026 92.3574 10.2026H99.7068V6.22793C99.7068 5.45818 98.9923 4.87038 98.1903 4.87038H91.3075L92.1387 3.19094Z" fill="white"/>
</g>
<defs>
<clipPath id="clip0_29_941">
<rect width="102" height="12" fill="white" transform="translate(0.0224609)"/>
</clipPath>
</defs>
</svg>
