<svg width="177" height="24" viewBox="0 0 177 24" fill="none" xmlns="http://www.w3.org/2000/svg">
<path d="M89 23.375C95.2822 23.375 100.375 18.2822 100.375 12C100.375 5.71776 95.2822 0.625 89 0.625C82.7178 0.625 77.625 5.71776 77.625 12C77.625 18.2822 82.7178 23.375 89 23.375Z" stroke="white" stroke-width="1.25"/>
<path d="M93.4716 16.472V12.998C93.4716 11.298 93.1056 9.98904 91.1186 9.98904C90.7453 9.97604 90.3755 10.0646 90.0486 10.2453C89.7218 10.426 89.4501 10.692 89.2626 11.015H89.2346V10.148H87.3516V16.472H89.3136V13.34C89.3136 12.515 89.4696 11.718 90.4906 11.718C91.5116 11.718 91.5116 12.659 91.5116 13.393V16.472H93.4716Z" fill="white"/>
<path d="M84.1602 10.148H86.1202V16.471H84.1602V10.148Z" fill="white"/>
<path d="M85.1382 7.00002C84.9117 6.99883 84.6899 7.06498 84.5011 7.19007C84.3122 7.31516 84.1648 7.49356 84.0775 7.7026C83.9902 7.91164 83.967 8.1419 84.0109 8.36415C84.0547 8.5864 84.1636 8.79062 84.3237 8.95087C84.4838 9.11112 84.6879 9.22018 84.9101 9.26421C85.1323 9.30823 85.3626 9.28523 85.5717 9.19813C85.7809 9.11103 85.9594 8.96376 86.0846 8.77501C86.2099 8.58626 86.2762 8.36454 86.2752 8.13802C86.2752 7.83637 86.1555 7.54707 85.9423 7.33368C85.7291 7.12029 85.4399 7.00028 85.1382 7.00002V7.00002Z" fill="white"/>
<path d="M165 23.375C171.282 23.375 176.375 18.2822 176.375 12C176.375 5.71776 171.282 0.625 165 0.625C158.718 0.625 153.625 5.71776 153.625 12C153.625 18.2822 158.718 23.375 165 23.375Z" stroke="white" stroke-width="1.25"/>
<path d="M169.451 9.785C169.443 9.39229 169.369 9.00374 169.231 8.636C169.109 8.32092 168.922 8.03488 168.682 7.7962C168.443 7.55753 168.156 7.37149 167.841 7.25C167.473 7.11217 167.085 7.03778 166.692 7.03C166.185 7.006 166.024 7 164.738 7C163.452 7 163.29 7.006 162.785 7.028C162.392 7.03562 162.004 7.11002 161.636 7.248C161.319 7.36814 161.032 7.5566 160.796 7.8C160.556 8.0355 160.37 8.31999 160.251 8.634C160.113 9.00179 160.039 9.39031 160.031 9.783C160.007 10.29 160.001 10.451 160.001 11.737C160.001 13.023 160.006 13.184 160.028 13.69C160.037 14.0829 160.112 14.4714 160.251 14.839C160.373 15.1534 160.558 15.4391 160.796 15.6777C161.035 15.9164 161.32 16.1027 161.634 16.225C162.002 16.3628 162.39 16.4372 162.783 16.445C163.288 16.467 163.449 16.473 164.735 16.473C166.021 16.473 166.182 16.468 166.687 16.445C167.08 16.4374 167.468 16.363 167.836 16.225C168.151 16.1034 168.437 15.9173 168.676 15.6786C168.915 15.4399 169.101 15.1539 169.223 14.839C169.361 14.4712 169.435 14.0827 169.443 13.69C169.465 13.185 169.471 13.024 169.471 11.738C169.471 10.452 169.469 10.29 169.451 9.785ZM168.594 13.653C168.591 13.9532 168.536 14.2506 168.431 14.532C168.352 14.7365 168.231 14.9222 168.076 15.0772C167.921 15.2322 167.735 15.3531 167.531 15.432C167.25 15.5366 166.952 15.5917 166.652 15.595C166.152 15.617 166.003 15.623 164.739 15.623C163.475 15.623 163.323 15.618 162.826 15.595C162.527 15.591 162.231 15.5356 161.951 15.431C161.745 15.3557 161.56 15.235 161.407 15.078C161.249 14.9252 161.128 14.7389 161.051 14.533C160.946 14.2516 160.891 13.9542 160.888 13.654C160.866 13.154 160.86 13.004 160.86 11.741C160.86 10.478 160.865 10.325 160.888 9.828C160.891 9.52779 160.946 9.23039 161.051 8.949C161.125 8.7413 161.246 8.55347 161.405 8.4C161.559 8.2445 161.745 8.12527 161.951 8.051C162.232 7.94669 162.528 7.89155 162.828 7.888C163.327 7.866 163.477 7.86 164.741 7.86C166.005 7.86 166.157 7.866 166.651 7.888C166.951 7.89118 167.249 7.94632 167.53 8.051C167.736 8.12631 167.921 8.24696 168.074 8.404C168.231 8.55684 168.351 8.74268 168.427 8.948C168.532 9.22943 168.587 9.5268 168.59 9.827C168.612 10.327 168.618 10.476 168.618 11.74C168.618 13.004 168.616 13.153 168.594 13.653Z" fill="white"/>
<path d="M164.738 9.30396C164.256 9.30396 163.786 9.44665 163.386 9.71399C162.986 9.98133 162.674 10.3613 162.49 10.8059C162.306 11.2505 162.258 11.7397 162.351 12.2116C162.445 12.6836 162.677 13.1171 163.017 13.4574C163.358 13.7976 163.791 14.0293 164.263 14.1232C164.735 14.2171 165.224 14.1689 165.669 13.9848C166.113 13.8006 166.493 13.4888 166.761 13.0887C167.028 12.6885 167.171 12.2182 167.171 11.737C167.17 11.0918 166.914 10.4731 166.458 10.0169C166.002 9.56063 165.383 9.30422 164.738 9.30396V9.30396ZM164.738 13.3159C164.426 13.3159 164.12 13.2234 163.861 13.05C163.601 12.8766 163.399 12.6302 163.28 12.3418C163.16 12.0535 163.129 11.7362 163.19 11.4301C163.251 11.124 163.401 10.8428 163.622 10.6221C163.843 10.4015 164.124 10.2512 164.43 10.1903C164.736 10.1294 165.053 10.1606 165.342 10.2801C165.63 10.3995 165.876 10.6018 166.05 10.8613C166.223 11.1208 166.316 11.4259 166.316 11.738C166.315 12.1564 166.149 12.5576 165.853 12.8535C165.557 13.1493 165.156 13.3157 164.738 13.3159Z" fill="white"/>
<path d="M167.835 9.20802C167.835 9.32036 167.802 9.43018 167.739 9.52358C167.677 9.61699 167.588 9.68979 167.484 9.73278C167.381 9.77577 167.266 9.78702 167.156 9.76511C167.046 9.74319 166.945 9.68909 166.865 9.60966C166.786 9.53022 166.732 9.42901 166.71 9.31882C166.688 9.20864 166.699 9.09444 166.742 8.99065C166.785 8.88687 166.858 8.79815 166.951 8.73574C167.045 8.67333 167.155 8.64001 167.267 8.64001C167.418 8.64001 167.562 8.69986 167.669 8.80638C167.775 8.9129 167.835 9.05737 167.835 9.20802Z" fill="white"/>
<path d="M50 23.375C56.2822 23.375 61.375 18.2822 61.375 12C61.375 5.71776 56.2822 0.625 50 0.625C43.7178 0.625 38.625 5.71776 38.625 12C38.625 18.2822 43.7178 23.375 50 23.375Z" stroke="white" stroke-width="1.25"/>
<path d="M55.428 9.00001C55.0357 9.17126 54.6208 9.28509 54.196 9.33801C54.6434 9.07233 54.9779 8.65177 55.136 8.15601C54.7168 8.40442 54.2582 8.57928 53.78 8.67301C53.4869 8.35945 53.1063 8.14134 52.6876 8.04708C52.2689 7.95281 51.8315 7.98675 51.4323 8.14447C51.0331 8.30219 50.6907 8.5764 50.4495 8.93142C50.2083 9.28643 50.0796 9.70582 50.08 10.135C50.0784 10.299 50.0952 10.4627 50.13 10.623C49.2802 10.5814 48.4487 10.3609 47.6899 9.97617C46.931 9.5914 46.2618 9.05092 45.726 8.39001C45.4509 8.86028 45.3656 9.41786 45.4877 9.94885C45.6098 10.4798 45.9301 10.9442 46.383 11.247C46.0446 11.2381 45.7133 11.1479 45.417 10.984V11.007C45.4178 11.5006 45.5886 11.9788 45.9005 12.3613C46.2125 12.7437 46.6467 13.0071 47.13 13.107C46.9469 13.1551 46.7583 13.1787 46.569 13.177C46.4348 13.1793 46.3007 13.1672 46.169 13.141C46.3073 13.5656 46.574 13.9369 46.9322 14.2036C47.2904 14.4703 47.7225 14.6193 48.169 14.63C47.412 15.2216 46.4787 15.5427 45.518 15.542C45.3449 15.5436 45.1719 15.5339 45 15.513C45.9777 16.1429 47.117 16.476 48.28 16.472C49.0805 16.4776 49.8741 16.3241 50.6148 16.0204C51.3554 15.7167 52.0283 15.2689 52.5945 14.7029C53.1606 14.137 53.6087 13.4642 53.9126 12.7236C54.2165 11.9831 54.3703 11.1895 54.365 10.389C54.365 10.294 54.365 10.203 54.357 10.113C54.7788 9.81029 55.1417 9.43311 55.428 9.00001V9.00001Z" fill="white"/>
<path d="M127 23.375C133.282 23.375 138.375 18.2822 138.375 12C138.375 5.71776 133.282 0.625 127 0.625C120.718 0.625 115.625 5.71776 115.625 12C115.625 18.2822 120.718 23.375 127 23.375Z" stroke="white" stroke-width="1.25"/>
<path d="M132.57 8.727C132.135 8.21 131.333 8 129.801 8H124.238C122.671 8 121.855 8.224 121.422 8.774C121.027 9.51527 120.879 10.363 121 11.194V13.283C121 15.402 121.5 16.477 124.238 16.477H129.8C130.698 16.6004 131.61 16.3703 132.342 15.835C132.625 15.4791 132.833 15.0694 132.953 14.6308C133.074 14.1921 133.104 13.7336 133.042 13.283V11.194C133.165 10.342 132.999 9.47336 132.57 8.727ZM128.729 12.527L126.2 13.844C126.141 13.875 126.074 13.8902 126.008 13.8881C125.941 13.886 125.876 13.8668 125.819 13.8322C125.762 13.7976 125.714 13.7488 125.682 13.6906C125.649 13.6324 125.632 13.5668 125.632 13.5V10.868C125.632 10.8013 125.649 10.7356 125.681 10.6775C125.714 10.6193 125.761 10.5705 125.818 10.5358C125.875 10.5011 125.94 10.4817 126.007 10.4795C126.073 10.4772 126.139 10.4922 126.199 10.523L128.725 11.835C128.788 11.8677 128.841 11.9171 128.878 11.9779C128.915 12.0387 128.934 12.1084 128.934 12.1795C128.934 12.2506 128.915 12.3203 128.878 12.3811C128.841 12.4419 128.788 12.4913 128.725 12.524L128.729 12.527Z" fill="white"/>
<path d="M12 23.375C18.2822 23.375 23.375 18.2822 23.375 12C23.375 5.71776 18.2822 0.625 12 0.625C5.71776 0.625 0.625 5.71776 0.625 12C0.625 18.2822 5.71776 23.375 12 23.375Z" stroke="white" stroke-width="1.25"/>
<path d="M13.5041 8.57297H14.3691V7.06697C13.9507 7.02091 13.53 6.99854 13.1091 6.99997C12.818 6.98347 12.5269 7.03081 12.256 7.13866C11.9852 7.24651 11.7412 7.41227 11.5411 7.62432C11.3411 7.83638 11.1898 8.08961 11.0979 8.36628C11.006 8.64295 10.9757 8.93636 11.0091 9.22597V10.552H9.63208V12.236H11.0081V16.473H12.6951V12.236H14.0151L14.2251 10.552H12.6941V9.39297C12.6941 8.90597 12.8251 8.57297 13.5041 8.57297V8.57297Z" fill="white"/>
</svg>
