<svg width="28" height="27" viewBox="0 0 28 27" fill="none" xmlns="http://www.w3.org/2000/svg">
<path fill-rule="evenodd" clip-rule="evenodd" d="M10.6604 9.97831C10.6035 10.1534 10.4403 10.272 10.2562 10.272H0.756869C0.345162 10.272 0.173982 10.7988 0.507061 11.0408L8.19216 16.6244C8.34112 16.7326 8.40344 16.9244 8.34655 17.0995L5.4111 26.1339C5.28388 26.5255 5.73203 26.8511 6.06511 26.6091L13.7502 21.0255C13.8992 20.9173 14.1009 20.9173 14.2498 21.0255L21.9349 26.6091C22.268 26.8511 22.7162 26.5255 22.5889 26.1339L19.6535 17.0995C19.5966 16.9244 19.6589 16.7326 19.8079 16.6244L27.493 11.0408C27.8261 10.7988 27.6549 10.272 27.2432 10.272H17.7439C17.5597 10.272 17.3966 10.1534 17.3397 9.97831L14.4042 0.943936C14.277 0.552379 13.723 0.55238 13.5958 0.943937L10.6604 9.97831ZM14 5.20125L12.2772 10.5036C11.9927 11.3792 11.1768 11.972 10.2562 11.972H4.68092L9.19139 15.249C9.93618 15.7902 10.2478 16.7493 9.96334 17.6249L8.24049 22.9272L12.751 19.6502C13.4958 19.1091 14.5043 19.1091 15.2491 19.6502L19.7595 22.9272L18.0367 17.6249C17.7522 16.7493 18.0639 15.7901 18.8086 15.249L23.3191 11.972H17.7439C16.8233 11.972 16.0073 11.3792 15.7229 10.5036L14 5.20125Z" fill="white"/>
</svg>
