<svg width="14" height="14" viewBox="0 0 14 14" fill="none" xmlns="http://www.w3.org/2000/svg">
<path fill-rule="evenodd" clip-rule="evenodd" d="M8.53599 8.93351C10.2577 8.28978 11.4871 6.59484 11.4871 4.6052C11.4871 2.06182 9.47813 0 7 0C4.52187 0 2.51295 2.06182 2.51295 4.6052C2.51295 6.59484 3.74234 8.28978 5.46401 8.93351C3.75828 9.14851 2.56061 9.72221 1.71814 10.4392C0.648424 11.3497 0.234466 12.4221 0.0370365 13.03C-0.0883482 13.416 0.114941 13.8333 0.491095 13.962C0.867249 14.0907 1.27383 13.882 1.39921 13.496C1.56075 12.9986 1.86472 12.2289 2.6347 11.5736C3.39879 10.9233 4.70566 10.3156 7 10.3156C9.29434 10.3156 10.6012 10.9233 11.3653 11.5736C12.1353 12.2289 12.4393 12.9986 12.6008 13.496C12.7262 13.882 13.1328 14.0907 13.5089 13.962C13.8851 13.8333 14.0883 13.416 13.963 13.03C13.7655 12.4221 13.3516 11.3497 12.2819 10.4392C11.4394 9.72221 10.2417 9.14851 8.53599 8.93351ZM10.0512 4.6052C10.0512 6.3347 8.68513 7.73673 7 7.73673C5.31487 7.73673 3.9488 6.3347 3.9488 4.6052C3.9488 2.8757 5.31487 1.47366 7 1.47366C8.68513 1.47366 10.0512 2.8757 10.0512 4.6052Z" fill="white"/>
</svg>
